<svg width="24" height="24" viewBox="0 0 24 24" fill="none" xmlns="http://www.w3.org/2000/svg">
<g clip-path="url(#clip0_447_11908)">
<path d="M21.8225 9H19.6355V11.177H17.4585V13.364H19.6355V15.541H21.8225V13.364H23.9995V11.177H21.8225V9Z" fill="white"/>
<path d="M7.5 19.5C11.828 19.5 14.703 16.462 14.703 12.174C14.703 11.683 14.652 11.304 14.581 10.926H7.501V13.504H11.758C11.584 14.599 10.469 16.737 7.501 16.737C4.944 16.737 2.856 14.619 2.856 12C2.856 9.381 4.943 7.262 7.501 7.262C8.964 7.262 9.936 7.886 10.489 8.418L12.525 6.464C11.214 5.237 9.526 4.5 7.5 4.5C3.356 4.5 0 7.856 0 12C0 16.144 3.356 19.5 7.5 19.5Z" fill="white"/>
</g>
<defs>
<clipPath id="clip0_447_11908">
<rect width="24" height="24" fill="white"/>
</clipPath>
</defs>
</svg>
