<svg width="22" height="18" viewBox="0 0 22 18" fill="none" xmlns="http://www.w3.org/2000/svg">
<g clip-path="url(#clip0_0_54)">
<path d="M6.94632 17.5274C15.1934 17.5274 19.7034 10.8123 19.7034 4.98919C19.7034 4.79845 19.6994 4.60858 19.6907 4.41958C20.5662 3.79755 21.3271 3.02132 21.9272 2.13768C21.1239 2.48864 20.2594 2.72491 19.3524 2.83144C20.2781 2.28588 20.9888 1.42288 21.3241 0.394077C20.4578 0.898826 19.4984 1.26568 18.477 1.46374C17.6588 0.607203 16.494 0.0714684 15.2042 0.0714684C12.7282 0.0714684 10.7203 2.04496 10.7203 4.47756C10.7203 4.82336 10.7596 5.15972 10.8366 5.48236C7.11013 5.29807 3.8058 3.54455 1.59436 0.878204C1.2093 1.52943 0.987272 2.2859 0.987272 3.09307C0.987272 4.62193 1.77883 5.9716 2.98253 6.76119C2.24692 6.73885 1.5559 6.54038 0.951926 6.21004C0.951266 6.22853 0.951263 6.24656 0.951263 6.26632C0.951263 8.40046 2.49677 10.1823 4.54834 10.5861C4.17158 10.687 3.77518 10.7411 3.36606 10.7411C3.07759 10.7411 2.79655 10.7132 2.52338 10.6617C3.09419 12.4126 4.74941 13.6867 6.71182 13.7223C5.17724 14.9045 3.24411 15.6086 1.14311 15.6086C0.781645 15.6086 0.42456 15.5884 0.0736084 15.5476C2.05794 16.7977 4.41414 17.5271 6.94656 17.5271" fill="black"/>
</g>
<defs>
<clipPath id="clip0_0_54">
<rect width="22" height="17.6" fill="white"/>
</clipPath>
</defs>
</svg>
