<svg width="50" height="50" viewBox="0 0 50 50" fill="none" xmlns="http://www.w3.org/2000/svg">
<path d="M25 50C38.8071 50 50 38.8071 50 25C50 11.1929 38.8071 0 25 0C11.1929 0 0 11.1929 0 25C0 38.8071 11.1929 50 25 50Z" fill="#FF3333"/>
<path d="M31.683 14.556C31.683 14.556 21.1764 13.741 19.8567 20.5168C18.5369 27.2926 19.0641 27.175 19.0641 27.175L26.5759 34.7063C25.4851 35.0656 17.7712 37.5207 17.7712 37.5207L29.79 49.5395C39.0381 47.7448 46.4665 40.854 49.0331 31.9061L31.683 14.556Z" fill="#C60000"/>
<path d="M33.9658 20.5164C33.9658 15.5862 29.9548 11.5752 25.0246 11.5752C20.0944 11.5752 16.0835 15.5861 16.0835 20.5164C16.0835 25.4466 20.0945 29.4576 25.0247 29.4576C26.1757 29.4576 27.2765 29.2389 28.2879 28.841C28.2088 29.9439 27.7594 30.9836 27.0001 31.7994C25.6191 33.283 23.4355 33.7533 21.5663 32.9696L19.9608 32.2966L17.7711 37.5202L19.3765 38.1933C20.682 38.7405 22.0583 39.0055 23.4243 39.0055C26.2947 39.0055 29.1196 37.8356 31.1462 35.6583C32.9644 33.7047 33.9659 31.159 33.9659 28.4901V20.9102C33.9659 20.9102 33.9658 20.6483 33.9658 20.5164ZM25.0247 23.7935C23.2177 23.7935 21.7476 22.3233 21.7476 20.5163C21.7476 18.7093 23.2177 17.2392 25.0247 17.2392C26.8316 17.2392 28.3017 18.7093 28.3017 20.5163C28.3017 22.3234 26.8317 23.7935 25.0247 23.7935Z" fill="#F8FFFB"/>
<path d="M33.9658 20.5166C33.9658 15.5869 29.9551 11.5762 25.0244 11.5762H25V17.2402H25.0244C26.832 17.2402 28.3018 18.71 28.3018 20.5166C28.3018 22.3242 26.832 23.7939 25.0244 23.7939H25V29.458H25.0244C26.1758 29.458 27.2764 29.2393 28.2881 28.8418C28.209 29.9443 27.7598 30.9844 27 31.7998C26.4404 32.4004 25.749 32.8359 25 33.0879V38.8877C27.3076 38.541 29.4932 37.4355 31.1465 35.6592C32.9648 33.7051 33.9658 31.1592 33.9658 28.4912V20.9111C33.9658 20.9111 33.9658 20.6494 33.9658 20.5166Z" fill="#D8D8D8"/>
</svg>
