<svg width="50" height="50" viewBox="0 0 50 50" fill="none" xmlns="http://www.w3.org/2000/svg">
<path d="M25 50C38.8071 50 50 38.8071 50 25C50 11.1929 38.8071 0 25 0C11.1929 0 0 11.1929 0 25C0 38.8071 11.1929 50 25 50Z" fill="#424242"/>
<path d="M49.6912 28.9327L32.4092 11.6506L14.9854 31.6438L32.2675 48.9259C41.3124 46.182 48.1872 38.4509 49.6912 28.9327Z" fill="#232323"/>
<path d="M32.4092 25.9797V11.6506H25.0538L14.9854 26.095V31.6438H26.7452V38.3499H32.4092V31.6438H36.0293V25.9797H32.4092ZM26.7452 25.9797H21.9698L26.7452 19.1301V25.9797Z" fill="#F8FFFB"/>
<path d="M32.4092 25.9797V11.6506H25.0537L25 11.7278V21.6331L26.7451 19.1301V25.9797H25V31.6438H26.7451V38.3499H32.4092V31.6438H36.0293V25.9797H32.4092Z" fill="#D8D8D8"/>
</svg>
