<svg width="22" height="19" viewBox="0 0 22 19" fill="none" xmlns="http://www.w3.org/2000/svg">
<g clip-path="url(#clip0_0_57)">
<path d="M15.8502 15.6939H13.0939V11.4199C13.0939 10.4008 13.0755 9.08876 11.6603 9.08876C10.2247 9.08876 10.0051 10.1992 10.0051 11.3457V15.6936H7.24875V6.90457H9.89481V8.10569H9.93186C10.1967 7.65738 10.5793 7.28858 11.0391 7.03857C11.4988 6.78856 12.0185 6.66669 12.5426 6.68596C15.3363 6.68596 15.8513 8.5054 15.8513 10.8724L15.8502 15.6939ZM4.13871 5.70317C3.82236 5.70323 3.51308 5.6104 3.25001 5.43642C2.98694 5.26244 2.78189 5.01512 2.66078 4.72575C2.53966 4.43637 2.50792 4.11793 2.56958 3.8107C2.63124 3.50347 2.78354 3.22124 3.00719 2.99971C3.23085 2.77817 3.51583 2.62728 3.8261 2.56612C4.13637 2.50495 4.45798 2.53626 4.75027 2.65608C5.04257 2.7759 5.29242 2.97885 5.46822 3.23927C5.64403 3.49969 5.7379 3.80588 5.73795 4.11912C5.73799 4.3271 5.69665 4.53305 5.6163 4.72522C5.53595 4.91739 5.41818 5.092 5.26967 5.2391C5.12117 5.38619 4.94485 5.50288 4.7508 5.5825C4.55675 5.66213 4.34877 5.70314 4.13871 5.70317ZM5.51687 15.6939H2.75769V6.90457H5.51687V15.6939ZM17.2243 0.00119768H1.37264C1.01286 -0.00282255 0.666156 0.134755 0.408761 0.383698C0.151365 0.632642 0.00432999 0.972583 -6.10352e-05 1.32882V17.0895C0.0041797 17.4459 0.151129 17.7861 0.408515 18.0353C0.665902 18.2845 1.01268 18.4223 1.37264 18.4185H17.2243C17.585 18.423 17.9327 18.2856 18.1912 18.0364C18.4496 17.7872 18.5975 17.4466 18.6025 17.0895V1.32769C18.5973 0.97074 18.4493 0.630412 18.1909 0.381474C17.9325 0.132537 17.5848 -0.00464765 17.2243 6.0062e-05" fill="black"/>
</g>
<defs>
<clipPath id="clip0_0_57">
<rect width="22" height="18.5714" fill="white"/>
</clipPath>
</defs>
</svg>
