<svg width="18" height="18" viewBox="0 0 18 18" fill="none" xmlns="http://www.w3.org/2000/svg">
<path d="M17.9938 8.99572C17.9441 9.00191 18 8.20406 17.652 6.84341C17.3101 5.51368 16.4151 3.5531 14.4013 2.03164C13.4006 1.28946 12.1451 0.664802 10.6968 0.411226C9.26107 0.170019 7.63261 0.213315 6.09117 0.800871C5.31423 1.073 4.56216 1.47501 3.87846 1.98835C3.18232 2.48932 2.54836 3.11398 2.02626 3.8376C0.950976 5.26628 0.341845 7.09699 0.323199 8.98335C0.341845 10.8697 0.94476 12.7066 2.02626 14.1353C2.54836 14.8589 3.18232 15.4836 3.87846 15.9907C4.56838 16.5041 5.31423 16.9123 6.09117 17.1782C7.63261 17.7658 9.26107 17.8091 10.6968 17.5678C12.1451 17.3143 13.4006 16.6896 14.4013 15.9474C16.4151 14.4322 17.3101 12.4716 17.652 11.1357C18 9.78119 17.9441 8.98954 17.9938 8.99572C18.0001 8.99572 18 9.0452 18 9.13797C18 9.25548 17.9938 9.39154 17.9938 9.55853C17.9938 9.74408 17.9876 9.97291 17.9379 10.245C17.9006 10.5172 17.8695 10.8264 17.7701 11.1728C17.6271 11.8655 17.3101 12.688 16.8067 13.5663C16.297 14.4383 15.5574 15.3537 14.538 16.133C13.5249 16.9061 12.2383 17.5617 10.7466 17.8338C9.2673 18.0936 7.5891 18.0564 5.99172 17.4627C5.18371 17.1906 4.40678 16.77 3.692 16.2443C2.971 15.7248 2.31217 15.0816 1.77142 14.3332C0.65263 12.855 0.0186465 10.9563 0 8.99572C0.0186465 7.03514 0.65263 5.13641 1.77142 3.65824C2.31217 2.90988 2.971 2.26667 3.692 1.74714C4.40678 1.22144 5.18371 0.800869 5.99172 0.528738C7.59532 -0.0711866 9.2673 -0.108299 10.7466 0.157647C12.2383 0.429778 13.5249 1.09155 14.538 1.85847C15.5574 2.63775 16.297 3.5531 16.8067 4.42516C17.3101 5.3034 17.6271 6.12598 17.7701 6.81867C17.8695 7.15884 17.9006 7.47426 17.9379 7.74639C17.9814 8.01852 17.9938 8.24736 17.9938 8.4329C17.9938 8.59989 18 8.74214 18 8.85347C18 8.94624 18.0001 8.99572 17.9938 8.99572Z" fill="#263238"/>
</svg>
