<svg width="51" height="49" viewBox="0 0 51 49" fill="none" xmlns="http://www.w3.org/2000/svg">
<path d="M0 46.4004L5.1966 37.283C2.89424 33.5666 1.56845 29.1964 1.56845 24.514C1.56845 11.044 12.5417 0.124384 26.0777 0.124384C39.6137 0.124384 50.587 11.044 50.587 24.514C50.587 37.9839 39.6137 48.9036 26.0777 48.9036C20.4254 48.9036 15.2229 46.9953 11.0798 43.7971L11.0857 43.8089L0 46.4004Z" fill="#FAFAFA"/>
<path d="M0 46.4004C0.526763 46.2826 4.03655 45.4816 11.1035 43.8737L11.2159 43.8501L11.1449 43.7559L11.139 43.7441L11.0324 43.8501C12.4292 44.928 14.1042 45.9881 16.0752 46.8775C18.0461 47.7492 20.307 48.4559 22.7988 48.7858C24.0417 48.9448 25.3438 49.0449 26.6814 48.9801C27.3502 48.9448 28.0309 48.9271 28.7175 48.8682C29.3981 48.7681 30.0906 48.6621 30.789 48.5561C33.5649 48.0083 36.3999 46.9599 39.0515 45.3285C41.6972 43.697 44.1475 41.4883 46.1125 38.7731C48.0716 36.0579 49.5572 32.8421 50.2556 29.3495C50.9421 25.8568 50.8889 22.1168 49.9656 18.4946C49.0363 14.8842 47.3022 11.3621 44.7098 8.46429L43.7095 7.36879C43.3781 6.99774 42.9874 6.69735 42.6323 6.35575C42.2594 6.0377 41.9221 5.67253 41.5196 5.38982L40.3418 4.51225C39.963 4.20598 39.5428 3.95861 39.1225 3.71124C38.7082 3.45797 38.2939 3.2106 37.8796 2.95734C37.4416 2.74531 37.0095 2.53917 36.5775 2.32714C36.1395 2.12688 35.7193 1.89129 35.2635 1.74405C31.7005 0.33639 27.9066 -0.199584 24.2725 0.065456C20.6385 0.324607 17.1642 1.36121 14.1871 3.03391C11.1982 4.68894 8.67679 6.9035 6.72955 9.37132C4.77638 11.845 3.40324 14.5661 2.55095 17.2813C1.70458 20.0083 1.47376 22.7117 1.4856 25.2148C1.55662 27.7239 2.01828 30.0386 2.68709 32.0647C3.3559 34.0966 4.23778 35.8459 5.14334 37.3125V37.2418C1.85847 43.0962 0.254504 45.9528 0 46.4004C0.260422 45.9528 1.89989 43.1198 5.2617 37.3184L5.28538 37.283L5.2617 37.2477C4.36798 35.7811 3.50386 34.0377 2.84689 32.0175C2.19583 29.9974 1.74602 27.7062 1.68683 25.2148C1.68683 22.7294 1.92357 20.0554 2.76994 17.3579C3.62223 14.6721 4.98944 11.9805 6.92485 9.53623C8.85435 7.09786 11.352 4.91275 14.3114 3.28128C17.2589 1.63214 20.6976 0.613206 24.2844 0.359945C27.8711 0.106685 31.6235 0.636766 35.1392 2.02676C35.5891 2.16811 36.0034 2.4037 36.4354 2.60396C36.8616 2.8101 37.2937 3.01624 37.7198 3.22827C38.1282 3.47564 38.5366 3.72302 38.9509 3.97039C39.3652 4.21776 39.7795 4.45924 40.1524 4.76551L41.3124 5.63131C41.709 5.90813 42.0404 6.2674 42.4074 6.58545C42.7566 6.92117 43.1472 7.22155 43.4728 7.58672L44.4612 8.67043C47.024 11.5329 48.7345 15.0137 49.6519 18.5771C50.5633 22.1522 50.6225 25.8509 49.9478 29.3024C49.2612 32.7538 47.7993 35.9401 45.8639 38.62C43.9285 41.3116 41.5078 43.5026 38.8917 45.1164C36.2756 46.742 33.4702 47.7845 30.7239 48.3323C30.0314 48.4383 29.3448 48.5443 28.676 48.6444C27.9954 48.7033 27.3207 48.721 26.6637 48.7622C25.3379 48.8329 24.0476 48.7328 22.8165 48.5796C20.3425 48.2616 18.0993 47.5666 16.1403 46.7126C14.1812 45.8409 12.5121 44.7984 11.1153 43.7382L10.6596 43.3907L11.0088 43.8442L11.0147 43.856L11.0561 43.7382C4.0247 45.4286 0.526763 46.2767 0 46.4004Z" fill="#263238"/>
<path d="M32.6949 23.4948C32.6949 24.8082 33.7662 25.8802 35.0921 25.8802C36.4179 25.8802 37.4893 24.8141 37.4893 23.4948C37.4893 22.1814 36.4179 21.1094 35.0921 21.1094C33.7662 21.1094 32.6949 22.1814 32.6949 23.4948Z" fill="#263238"/>
<path d="M23.1124 23.4948C23.1124 24.8082 24.1837 25.8802 25.5096 25.8802C26.8354 25.8802 27.9068 24.8141 27.9068 23.4948C27.9068 22.1814 26.8354 21.1094 25.5096 21.1094C24.1837 21.1094 23.1124 22.1814 23.1124 23.4948Z" fill="#263238"/>
<path d="M13.5539 22.3059C12.8909 23.4486 13.2875 24.9033 14.4299 25.563C15.5782 26.2226 17.0402 25.828 17.7031 24.6913C18.366 23.5487 17.9695 22.0939 16.8271 21.4342C15.6788 20.7746 14.2109 21.1633 13.5539 22.3059Z" fill="#263238"/>
</svg>
