<svg width="124" height="87" viewBox="0 0 124 87" fill="none" xmlns="http://www.w3.org/2000/svg">
<path d="M117.974 1.58461H97.4792V25.8281H117.974V1.58461Z" fill="#F5F5F5"/>
<path d="M98.1924 0H5.58323V27.3473H98.1924V0Z" fill="#E0E0E0"/>
<path d="M118.593 2.29995H95.7043V0H118.593C119.23 0 119.748 0.516327 119.748 1.14998C119.748 1.78951 119.23 2.29995 118.593 2.29995Z" fill="#E0E0E0"/>
<path d="M118.593 27.3478H95.7043V25.0479H118.593C119.23 25.0479 119.748 25.5642 119.748 26.1979C119.748 26.8374 119.23 27.3478 118.593 27.3478Z" fill="#E0E0E0"/>
<path d="M90.9111 0H79.9675V27.3473H90.9111V0Z" fill="#EBEBEB"/>
<path d="M25.3298 0.305363H14.3861V27.6526H25.3298V0.305363Z" fill="#EBEBEB"/>
<path d="M117.974 5.59134C117.974 5.65588 113.54 5.71457 108.069 5.71457C102.597 5.71457 98.1634 5.66175 98.1634 5.59134C98.1634 5.5268 102.597 5.46813 108.069 5.46813C113.54 5.46813 117.974 5.5268 117.974 5.59134Z" fill="#E0E0E0"/>
<path d="M117.974 9.229C117.974 9.29354 113.54 9.35221 108.069 9.35221C102.597 9.35221 98.1634 9.29941 98.1634 9.229C98.1634 9.16447 102.597 9.1058 108.069 9.1058C113.54 9.1058 117.974 9.1586 117.974 9.229Z" fill="#E0E0E0"/>
<path d="M117.974 13.7061C117.974 13.7706 113.54 13.8293 108.069 13.8293C102.597 13.8293 98.1634 13.7765 98.1634 13.7061C98.1634 13.6416 102.597 13.5829 108.069 13.5829C113.54 13.5829 117.974 13.6357 117.974 13.7061Z" fill="#E0E0E0"/>
<path d="M117.974 18.1774C117.974 18.2419 113.54 18.3006 108.069 18.3006C102.597 18.3006 98.1634 18.2478 98.1634 18.1774C98.1634 18.1128 102.597 18.0541 108.069 18.0541C113.54 18.06 117.974 18.1128 117.974 18.1774Z" fill="#E0E0E0"/>
<path d="M117.974 22.6532C117.974 22.7178 113.54 22.7765 108.069 22.7765C102.597 22.7765 98.1634 22.7237 98.1634 22.6532C98.1634 22.5887 102.597 22.53 108.069 22.53C113.54 22.5359 117.974 22.5887 117.974 22.6532Z" fill="#E0E0E0"/>
<path d="M74.0833 11.2416H32.4219V16.1643H74.0833V11.2416Z" fill="#EBEBEB"/>
<path d="M117.768 27.8872H96.9605V42.661H117.768V27.8872Z" fill="#FAFAFA"/>
<path d="M97.1959 27.348H8.6491V43.1896H97.1959V27.348Z" fill="#F5F5F5"/>
<path d="M96.5472 28.422H118.911C119.206 28.422 119.447 28.1814 119.447 27.8881C119.447 27.5947 119.206 27.3541 118.911 27.3541H96.5472V28.422Z" fill="#F5F5F5"/>
<path d="M96.5472 43.1955H119.2C119.335 43.1955 119.447 43.084 119.447 42.949V42.3682C119.447 42.2332 119.335 42.1218 119.2 42.1218H96.5472V43.1955Z" fill="#F5F5F5"/>
<path d="M117.767 30.6923C117.767 30.7569 113.163 30.8156 107.479 30.8156C101.795 30.8156 97.1902 30.7628 97.1902 30.6923C97.1902 30.6278 101.795 30.5691 107.479 30.5691C113.157 30.5691 117.767 30.6278 117.767 30.6923Z" fill="#E0E0E0"/>
<path d="M117.767 33.4847C117.767 33.5492 113.163 33.6079 107.479 33.6079C101.795 33.6079 97.1902 33.5551 97.1902 33.4847C97.1902 33.4201 101.795 33.3615 107.479 33.3615C113.157 33.3674 117.767 33.4201 117.767 33.4847Z" fill="#E0E0E0"/>
<path d="M117.767 36.2839C117.767 36.3484 113.163 36.4071 107.479 36.4071C101.795 36.4071 97.1902 36.3543 97.1902 36.2839C97.1902 36.2194 101.795 36.1607 107.479 36.1607C113.157 36.1607 117.767 36.2135 117.767 36.2839Z" fill="#E0E0E0"/>
<path d="M117.767 39.077C117.767 39.1415 113.163 39.2002 107.479 39.2002C101.795 39.2002 97.1902 39.1474 97.1902 39.077C97.1902 39.0124 101.795 38.9538 107.479 38.9538C113.157 38.9538 117.767 39.0066 117.767 39.077Z" fill="#E0E0E0"/>
<path d="M120.922 44.6029H99.6846V84.6469H120.922V44.6029Z" fill="#EBEBEB"/>
<path d="M99.6844 43.1965H0V86.6142H99.6844V43.1965Z" fill="#E0E0E0"/>
<path d="M122.585 86.6063H96.9605V83.79H122.585C123.369 83.79 124 84.4178 124 85.1982C124 85.9785 123.363 86.6063 122.585 86.6063Z" fill="#E0E0E0"/>
<path d="M123.351 46.005H96.9605V43.1887H123.351C123.711 43.1887 124 43.4762 124 43.8341V45.3596C124 45.7175 123.705 46.005 123.351 46.005Z" fill="#E0E0E0"/>
<path d="M120.922 49.965C120.922 50.0296 116.17 50.0882 110.303 50.0882C104.437 50.0882 99.6846 50.0354 99.6846 49.965C99.6846 49.9005 104.437 49.8418 110.303 49.8418C116.17 49.8477 120.922 49.9005 120.922 49.965Z" fill="#E0E0E0"/>
<path d="M120.922 55.1055C120.922 55.17 116.17 55.2287 110.303 55.2287C104.437 55.2287 99.6846 55.1759 99.6846 55.1055C99.6846 55.0409 104.437 54.9823 110.303 54.9823C116.17 54.9823 120.922 55.0351 120.922 55.1055Z" fill="#E0E0E0"/>
<path d="M120.922 60.2391C120.922 60.3037 116.17 60.3623 110.303 60.3623C104.437 60.3623 99.6846 60.3095 99.6846 60.2391C99.6846 60.1746 104.437 60.1159 110.303 60.1159C116.17 60.1159 120.922 60.1746 120.922 60.2391Z" fill="#E0E0E0"/>
<path d="M120.922 65.3727C120.922 65.4373 116.17 65.496 110.303 65.496C104.437 65.496 99.6846 65.4432 99.6846 65.3727C99.6846 65.3082 104.437 65.2495 110.303 65.2495C116.17 65.2554 120.922 65.3082 120.922 65.3727Z" fill="#E0E0E0"/>
<path d="M120.922 70.5132C120.922 70.5778 116.17 70.6365 110.303 70.6365C104.437 70.6365 99.6846 70.5837 99.6846 70.5132C99.6846 70.4487 104.437 70.39 110.303 70.39C116.17 70.39 120.922 70.4428 120.922 70.5132Z" fill="#E0E0E0"/>
<path d="M120.922 75.6469C120.922 75.7114 116.17 75.7701 110.303 75.7701C104.437 75.7701 99.6846 75.7173 99.6846 75.6469C99.6846 75.5823 104.437 75.5236 110.303 75.5236C116.17 75.5236 120.922 75.5823 120.922 75.6469Z" fill="#E0E0E0"/>
<path d="M120.922 80.7805C120.922 80.845 116.17 80.9037 110.303 80.9037C104.437 80.9037 99.6846 80.8509 99.6846 80.7805C99.6846 80.716 104.437 80.6573 110.303 80.6573C116.17 80.6631 120.922 80.716 120.922 80.7805Z" fill="#E0E0E0"/>
<path d="M34.1087 67.2746V69.6919C34.1087 72.6021 32.6464 74.2625 29.8279 74.2625C27.0095 74.2625 25.5472 72.6021 25.5472 69.6919V60.2339C25.5472 57.3237 27.0095 55.6633 29.8279 55.6633C32.6464 55.6633 34.1087 57.3237 34.1087 60.2339V61.9999H31.3964V60.052C31.3964 58.7553 30.8244 58.2625 29.9105 58.2625C28.9966 58.2625 28.4246 58.7553 28.4246 60.052V69.8738C28.4246 71.1704 28.9966 71.6398 29.9105 71.6398C30.8244 71.6398 31.3964 71.1704 31.3964 69.8738V67.2746H34.1087Z" fill="#EBEBEB"/>
<path d="M35.6234 60.24C35.6234 57.3298 37.1624 55.6694 39.9808 55.6694C42.7993 55.6694 44.3383 57.3298 44.3383 60.24V69.698C44.3383 72.6082 42.7993 74.2686 39.9808 74.2686C37.1624 74.2686 35.6234 72.6082 35.6234 69.698V60.24ZM38.495 69.874C38.495 71.1707 39.0669 71.6635 39.9808 71.6635C40.8948 71.6635 41.4667 71.1707 41.4667 69.874V60.0581C41.4667 58.7615 40.8948 58.2686 39.9808 58.2686C39.0669 58.2686 38.495 58.7615 38.495 60.0581V69.874Z" fill="#EBEBEB"/>
<path d="M46.1894 55.8746H49.061V71.458H53.784V74.0572H46.1894V55.8746Z" fill="#EBEBEB"/>
<path d="M54.8038 60.24C54.8038 57.3298 56.3427 55.6694 59.1612 55.6694C61.9797 55.6694 63.5186 57.3298 63.5186 60.24V69.698C63.5186 72.6082 61.9797 74.2686 59.1612 74.2686C56.3427 74.2686 54.8038 72.6082 54.8038 69.698V60.24ZM57.6753 69.874C57.6753 71.1707 58.2472 71.6635 59.1612 71.6635C60.0751 71.6635 60.6471 71.1707 60.6471 69.874V60.0581C60.6471 58.7615 60.0751 58.2686 59.1612 58.2686C58.2472 58.2686 57.6753 58.7615 57.6753 60.0581V69.874Z" fill="#EBEBEB"/>
<path d="M68.1169 55.8746V69.9032C68.1169 71.1999 68.6889 71.6693 69.6028 71.6693C70.5168 71.6693 71.0887 71.1999 71.0887 69.9032V55.8746H73.801V69.7213C73.801 72.6315 72.3387 74.2919 69.5203 74.2919C66.7018 74.2919 65.2395 72.6315 65.2395 69.7213V55.8746H68.1169Z" fill="#EBEBEB"/>
<path d="M81.7664 74.0572C81.6072 73.5878 81.5069 73.3062 81.5069 71.8218V68.9644C81.5069 67.2747 80.935 66.6527 79.626 66.6527H78.6354V74.0572H75.7639V55.8746H80.0977C83.0754 55.8746 84.3549 57.2534 84.3549 60.058V61.4837C84.3549 63.3554 83.7535 64.5757 82.4739 65.1742C83.9127 65.7727 84.3785 67.1456 84.3785 69.0466V71.8511C84.3785 72.7371 84.4021 73.3825 84.691 74.0572H81.7664ZM78.6354 58.4738V64.0594H79.7557C80.8289 64.0594 81.4775 63.5901 81.4775 62.135V60.3455C81.4775 59.0488 81.0352 58.4738 80.0152 58.4738H78.6354Z" fill="#EBEBEB"/>
<path d="M33.4895 33.5903H31.3963L31.5084 33.0505H36.3139L36.196 33.5903H34.1087L33.0296 38.953H32.4105L33.4895 33.5903Z" fill="#E0E0E0"/>
<path d="M40.3464 34.5171L37.0916 39.5277C36.5433 40.3726 36.1246 40.6307 35.4819 40.6307C35.0692 40.6307 34.6446 40.4899 34.4206 40.2318L34.7449 39.7917C34.9395 39.9912 35.193 40.1144 35.535 40.1144C35.9183 40.1144 36.2131 39.9384 36.561 39.3986L36.8735 38.9292L35.765 34.5171H36.3723L37.298 38.2956L39.7332 34.5171H40.3464Z" fill="#E0E0E0"/>
<path d="M45.2998 36.3533C45.2998 37.8788 44.2326 38.9935 42.7762 38.9935C41.9271 38.9935 41.3375 38.6474 41.078 38.0254L40.571 40.5894H39.9695L41.1842 34.5168H41.762L41.6205 35.2267C42.045 34.7574 42.6406 34.4875 43.3599 34.4875C44.4979 34.4816 45.2998 35.1916 45.2998 36.3533ZM44.6925 36.3885C44.6925 35.5201 44.1559 35.0038 43.2243 35.0038C42.1158 35.0038 41.3021 35.8722 41.3021 37.0867C41.3021 37.955 41.8387 38.4596 42.7703 38.4596C43.8788 38.4655 44.6925 37.5971 44.6925 36.3885Z" fill="#E0E0E0"/>
<path d="M46.0009 37.1162C46.0009 35.6083 47.0799 34.4877 48.5776 34.4877C49.8158 34.4877 50.6059 35.2152 50.6059 36.3593C50.6059 37.8789 49.5269 38.9996 48.0292 38.9996C46.791 38.9937 46.0009 38.2545 46.0009 37.1162ZM50.0045 36.3887C50.0045 35.5203 49.4679 35.004 48.5363 35.004C47.4278 35.004 46.6023 35.8782 46.6023 37.0869C46.6023 37.9552 47.1389 38.4598 48.0705 38.4598C49.179 38.4657 50.0045 37.5973 50.0045 36.3887Z" fill="#E0E0E0"/>
<path d="M56.3723 34.5168L55.594 38.4126C55.2815 39.9792 54.4501 40.6304 52.9996 40.6304C52.1623 40.6304 51.4725 40.3957 51.0184 39.9616L51.3722 39.5039C51.726 39.8677 52.3274 40.0965 53.0409 40.0965C54.1671 40.0965 54.7626 39.5802 54.9749 38.5124L55.0751 38.0195C54.6506 38.4948 54.0492 38.7822 53.2944 38.7822C52.1152 38.7822 51.325 38.1016 51.325 36.9927C51.325 35.567 52.3864 34.4816 53.8664 34.4816C54.686 34.4816 55.3523 34.816 55.6058 35.4907L55.7945 34.5109H56.3723V34.5168ZM55.3582 36.2945C55.3582 35.4849 54.8098 35.0037 53.8841 35.0037C52.7579 35.0037 51.9442 35.831 51.9442 36.9575C51.9442 37.7672 52.4866 38.2483 53.4183 38.2483C54.5386 38.2542 55.3582 37.4269 55.3582 36.2945Z" fill="#E0E0E0"/>
<path d="M60.3047 34.4816L60.1927 35.0624C60.1337 35.0624 60.0924 35.0507 60.0217 35.0507C59.0724 35.0507 58.4355 35.5905 58.2174 36.6935L57.7693 38.9465H57.1678L58.0523 34.5109H58.6301L58.4768 35.3206C58.8719 34.7456 59.4556 34.4816 60.3047 34.4816Z" fill="#E0E0E0"/>
<path d="M65.4165 34.517L64.5262 38.9527H63.9483L64.0898 38.2545C63.6653 38.718 63.0757 38.9937 62.3504 38.9937C61.2065 38.9937 60.4105 38.2838 60.4105 37.1162C60.4105 35.5966 61.4777 34.4877 62.9282 34.4877C63.7773 34.4877 64.367 34.8339 64.6205 35.4499L64.8092 34.5229H65.4165V34.517ZM64.4141 36.3887C64.4141 35.5203 63.8776 35.004 62.9459 35.004C61.8374 35.004 61.0119 35.8782 61.0119 37.0869C61.0119 37.9552 61.5485 38.4598 62.4801 38.4598C63.5945 38.4657 64.4141 37.5973 64.4141 36.3887Z" fill="#E0E0E0"/>
<path d="M71.2006 36.3533C71.2006 37.8788 70.1334 38.9935 68.677 38.9935C67.8279 38.9935 67.2383 38.6474 66.9788 38.0254L66.4717 40.5894H65.8703L67.085 34.5168H67.6628L67.5213 35.2267C67.9458 34.7574 68.5414 34.4875 69.2607 34.4875C70.3928 34.4816 71.2006 35.1916 71.2006 36.3533ZM70.5933 36.3885C70.5933 35.5201 70.0567 35.0038 69.1251 35.0038C68.0166 35.0038 67.2029 35.8722 67.2029 37.0867C67.2029 37.955 67.7395 38.4596 68.6711 38.4596C69.7796 38.4655 70.5933 37.5971 70.5933 36.3885Z" fill="#E0E0E0"/>
<path d="M76.596 35.9251C76.596 36.0835 76.5783 36.2536 76.543 36.4296L76.0359 38.9526H75.4344L75.9415 36.4238C75.9651 36.283 75.9828 36.148 75.9828 36.0189C75.9828 35.3853 75.5995 35.0215 74.833 35.0215C73.8837 35.0215 73.2292 35.5378 73.0169 36.5705L72.5452 38.9467H71.9438L73.1997 32.6864H73.8011L73.2999 35.1741C73.7245 34.6929 74.32 34.4759 75.004 34.4759C76.0123 34.4817 76.596 35.0215 76.596 35.9251Z" fill="#E0E0E0"/>
<path d="M82.2324 34.5171L78.9776 39.5277C78.4292 40.3726 78.0106 40.6307 77.3679 40.6307C76.9551 40.6307 76.5306 40.4899 76.3065 40.2318L76.6308 39.7917C76.8254 39.9912 77.079 40.1144 77.4209 40.1144C77.8042 40.1144 78.099 39.9384 78.4469 39.3986L78.7594 38.9292L77.6509 34.5171H78.2582L79.184 38.2956L81.6192 34.5171H82.2324Z" fill="#E0E0E0"/>
</svg>
