<svg width="19" height="3" viewBox="0 0 19 3" fill="none" xmlns="http://www.w3.org/2000/svg">
<path d="M19 0.643317C18.9939 0.667565 18.7259 0.643313 18.2386 0.582694C17.7512 0.522075 17.0446 0.449341 16.1735 0.38266C14.4313 0.249298 12.0068 0.218988 9.35082 0.534207C6.70095 0.855488 4.34956 1.45561 2.68654 1.98906C1.85198 2.25578 1.1819 2.4922 0.725024 2.66799C0.268149 2.83772 0.00620594 2.9226 0.00011428 2.90441C-0.00597738 2.88623 0.231595 2.75892 0.682378 2.55281C1.12707 2.34065 1.78498 2.07392 2.61954 1.77689C4.27647 1.18282 6.64004 0.540276 9.32037 0.218995C11.9946 -0.0962241 14.4495 -0.0295468 16.1978 0.158372C17.075 0.249301 17.7817 0.358409 18.2629 0.4554C18.7442 0.564514 19.0061 0.625131 19 0.643317Z" fill="#263238"/>
</svg>
