<svg width="135" height="87" viewBox="0 0 135 87" fill="none" xmlns="http://www.w3.org/2000/svg">
<path d="M16.9145 42.8026C16.8379 42.8436 15.5369 40.483 14.0063 37.5365C12.4758 34.59 11.2984 32.1707 11.369 32.1297C11.4456 32.0887 12.7466 34.4494 14.2771 37.3959C15.8077 40.3424 16.991 42.7616 16.9145 42.8026Z" fill="white"/>
<path d="M36.2095 21.4284C36.133 21.3932 36.9395 19.4309 38.005 17.0409C39.0764 14.6509 40.0065 12.7413 40.0831 12.7764C40.1596 12.8116 39.3531 14.7739 38.2876 17.1639C37.2162 19.5539 36.2861 21.4635 36.2095 21.4284Z" fill="white"/>
<path d="M55.1066 35.2988C55.0418 35.3516 53.8291 34.0043 52.4045 32.2879C50.974 30.5716 49.8731 29.1364 49.9379 29.0837C50.0026 29.031 51.2153 30.3783 52.64 32.0946C54.0646 33.811 55.1713 35.2461 55.1066 35.2988Z" fill="white"/>
<path d="M50.7556 54.3783C50.6849 54.3315 51.5974 52.9608 52.7924 51.3206C53.9875 49.6804 55.0118 48.3917 55.0765 48.4444C55.1472 48.4913 54.2347 49.862 53.0397 51.5022C51.8505 53.1423 50.8262 54.4311 50.7556 54.3783Z" fill="white"/>
<path d="M44.9045 81.3298C44.8692 81.3474 44.5984 80.9022 44.2158 80.1524C43.8273 79.4026 43.3269 78.3541 42.8265 77.1767C42.3202 75.9934 41.914 74.9097 41.6374 74.113C41.3666 73.3164 41.2253 72.8126 41.2665 72.8009C41.3077 72.7892 41.5196 73.2637 41.8434 74.0369C42.2143 74.9156 42.6381 75.9348 43.1091 77.0595C43.5918 78.1783 44.0333 79.1859 44.4159 80.0645C44.7456 80.826 44.9458 81.3064 44.9045 81.3298Z" fill="white"/>
<path d="M61.5289 69.8718C61.5113 69.9539 59.91 69.7137 57.9556 69.3388C55.9953 68.9639 54.4235 68.589 54.4411 68.507C54.4588 68.425 56.06 68.6652 58.0145 69.0401C59.9748 69.4149 61.5466 69.7898 61.5289 69.8718Z" fill="white"/>
<path d="M74.4255 44.6889C74.3608 44.6303 75.8913 42.8964 77.834 40.8052C79.7767 38.7198 81.4073 37.0738 81.4662 37.1324C81.531 37.1909 80.0004 38.9249 78.0577 41.0161C76.1092 43.1014 74.4844 44.7475 74.4255 44.6889Z" fill="white"/>
<path d="M87.3938 78.2718C87.329 78.3245 85.4276 76.1337 83.1435 73.3747C80.8594 70.6157 79.0639 68.337 79.1286 68.2843C79.1934 68.2316 81.0948 70.4224 83.3789 73.1814C85.663 75.9404 87.4585 78.2191 87.3938 78.2718Z" fill="white"/>
<path d="M6.87791 63.9614C6.91912 64.0434 5.18249 64.9221 3.28692 66.369C1.38546 67.8041 0.0726929 69.2451 0.00205052 69.1807C-0.0273838 69.1573 0.261073 68.7648 0.802664 68.1849C1.33837 67.6108 2.13898 66.861 3.09854 66.1288C4.0581 65.4024 5 64.8342 5.70054 64.4652C6.40108 64.102 6.86025 63.9263 6.87791 63.9614Z" fill="white"/>
<path d="M11.7286 51.0159C11.7992 51.0628 11.1811 52.1113 10.3452 53.359C9.50922 54.6068 8.77925 55.5792 8.7086 55.5323C8.63796 55.4854 9.25609 54.4369 10.092 53.1892C10.9221 51.9415 11.6579 50.9691 11.7286 51.0159Z" fill="white"/>
<path d="M22.6534 63.7264C22.5886 63.7674 21.9705 62.7423 21.6526 61.3188C21.3229 59.9012 21.4348 58.7121 21.5113 58.718C21.6055 58.718 21.6349 59.872 21.9528 61.2485C22.2589 62.631 22.7358 63.6854 22.6534 63.7264Z" fill="white"/>
<path d="M24.2732 23.3551C24.285 23.4371 23.2724 23.6538 22.0067 23.8296C20.7411 24.0112 19.705 24.0873 19.6932 24.0053C19.6814 23.9233 20.694 23.7066 21.9597 23.5308C23.2253 23.3492 24.2614 23.2731 24.2732 23.3551Z" fill="white"/>
<path d="M32.4783 8.86956C32.5195 8.94571 31.6306 9.51392 30.4944 10.1407C29.3583 10.7675 28.3987 11.2185 28.3575 11.1424C28.3163 11.0662 29.2052 10.498 30.3414 9.87124C31.4834 9.24446 32.4371 8.79927 32.4783 8.86956Z" fill="white"/>
<path d="M55.5596 14.9896C55.4948 15.0423 54.4764 13.8239 53.2872 12.2716C52.0981 10.7192 51.1915 9.42467 51.2622 9.37195C51.3269 9.31923 52.3453 10.5377 53.5345 12.09C54.7177 13.6364 55.6302 14.9368 55.5596 14.9896Z" fill="white"/>
<path d="M84.8566 29.5523C84.7977 29.605 83.7263 28.5096 82.7374 26.9163C81.7366 25.323 81.2244 23.8878 81.2951 23.8585C81.3775 23.8234 82.0133 25.1882 82.9964 26.7581C83.9795 28.328 84.9273 29.4937 84.8566 29.5523Z" fill="white"/>
<path d="M96.0407 33.2198C96.1172 33.255 95.5756 34.614 94.828 36.2483C94.0803 37.8885 93.4151 39.1889 93.3327 39.1537C93.2562 39.1186 93.7978 37.7596 94.5454 36.1253C95.293 34.4851 95.9642 33.1847 96.0407 33.2198Z" fill="white"/>
<path d="M97.607 18.0303C97.5422 18.0831 96.2118 16.601 94.6341 14.7148C93.0565 12.8286 91.832 11.2529 91.8968 11.2002C91.9615 11.1474 93.2919 12.6295 94.8696 14.5157C96.4414 16.4077 97.6718 17.9776 97.607 18.0303Z" fill="white"/>
<path d="M80.5238 5.6938C80.4414 5.69965 80.3178 4.42852 80.2589 2.85277C80.1942 1.28288 80.2177 0.00587796 80.3001 2.01647e-05C80.3825 -0.00583763 80.5062 1.26531 80.565 2.84105C80.6298 4.4168 80.6121 5.6938 80.5238 5.6938Z" fill="white"/>
<path d="M94.4521 4.92706C94.4639 5.00907 92.8332 5.2961 90.8199 5.56555C88.8007 5.83501 87.1583 5.98146 87.1465 5.89945C87.1347 5.81744 88.7595 5.53041 90.7787 5.26096C92.792 4.9915 94.4404 4.84505 94.4521 4.92706Z" fill="white"/>
<path d="M116.385 20.9593C116.308 20.9945 115.331 19.1376 114.195 16.812C113.065 14.4865 112.205 12.5651 112.282 12.53C112.358 12.4949 113.335 14.3518 114.472 16.6773C115.602 19.0028 116.461 20.9242 116.385 20.9593Z" fill="white"/>
<path d="M112.688 34.8127C112.606 34.7952 112.835 33.3015 113.2 31.4797C113.565 29.6521 113.93 28.1876 114.013 28.2052C114.095 28.2228 113.866 29.7165 113.501 31.5383C113.136 33.36 112.777 34.8303 112.688 34.8127Z" fill="white"/>
<path d="M122.866 45.732C122.784 45.7613 122.007 43.7462 121.118 41.2332C120.235 38.7202 119.581 36.6583 119.664 36.629C119.746 36.5997 120.523 38.6148 121.412 41.1278C122.295 43.6466 122.943 45.7027 122.866 45.732Z" fill="white"/>
<path d="M121.447 52.1223C121.43 52.1984 120.023 51.9055 118.474 51.062C116.92 50.2302 115.902 49.2168 115.961 49.1641C116.02 49.0938 117.103 49.9842 118.622 50.7984C120.129 51.6126 121.477 52.0344 121.447 52.1223Z" fill="white"/>
<path d="M134.48 66.6849C134.403 66.7201 133.932 65.8297 133.426 64.6992C132.92 63.5686 132.572 62.6255 132.649 62.5904C132.725 62.5552 133.196 63.4456 133.703 64.5762C134.209 65.7067 134.556 66.6498 134.48 66.6849Z" fill="white"/>
<path d="M57.5072 86.9999C57.4248 87.0116 57.2188 85.8459 57.048 84.4049C56.8773 82.9639 56.8126 81.7865 56.895 81.7748C56.9774 81.763 57.1834 82.9287 57.3542 84.3697C57.5249 85.8107 57.5896 86.9882 57.5072 86.9999Z" fill="white"/>
<path d="M97.4946 85.9924C97.4122 85.9748 97.5829 84.8384 97.8773 83.456C98.1716 82.0735 98.4777 80.9664 98.5601 80.984C98.6425 81.0015 98.4718 82.138 98.1775 83.5204C97.8831 84.9028 97.577 86.01 97.4946 85.9924Z" fill="white"/>
</svg>
