<svg width="20" height="20" viewBox="0 0 20 20" fill="none" xmlns="http://www.w3.org/2000/svg">
<path d="M19.9 2.63033C19.8759 2.65436 19.5378 2.31188 18.7831 1.88531C18.0344 1.46474 16.8631 0.978077 15.3537 0.647629C14.599 0.485409 13.7598 0.353238 12.8541 0.299164C11.9485 0.245091 10.9764 0.257106 9.98625 0.485416C8.0059 0.92401 6.03763 2.17371 4.48596 3.92208C2.91013 5.67045 1.94412 7.73725 1.37054 9.68389C0.790932 11.6365 0.543386 13.469 0.386408 15.0011C0.235467 16.5392 0.175089 17.7889 0.120751 18.654C0.0966003 19.0566 0.0724553 19.387 0.06038 19.6514C0.0422671 19.8797 0.0301874 19.9999 0.0181122 19.9999C0.00603689 19.9999 0 19.8797 0 19.6514C0 19.387 -3.31644e-06 19.0566 0.00603432 18.654C0.0241472 17.7889 0.0483003 16.5332 0.169053 14.9831C0.295843 13.439 0.525272 11.5885 1.09281 9.59978C1.65431 7.6231 2.63844 5.50222 4.25049 3.71179C5.83839 1.92136 7.86704 0.641627 9.92587 0.203032C10.9523 -0.0252777 11.9545 -0.0312792 12.8722 0.0408185C13.79 0.106908 14.6413 0.2511 15.402 0.431344C16.9295 0.791833 18.1008 1.31454 18.8434 1.77716C19.2117 2.01148 19.4834 2.22177 19.6525 2.37798C19.8215 2.53419 19.9061 2.62432 19.9 2.63033Z" fill="#263238"/>
</svg>
