<svg width="7" height="8" viewBox="0 0 7 8" fill="none" xmlns="http://www.w3.org/2000/svg">
<path d="M4.96378 6.96111C4.97564 6.99653 4.77394 7.11458 4.3587 7.20313C3.9494 7.27986 3.30876 7.31528 2.57319 7.07326C1.84356 6.84306 1.01901 6.2764 0.508864 5.36738C-0.00721745 4.48198 -0.197036 3.23651 0.253793 2.10909C0.467344 1.54833 0.805463 1.05251 1.21477 0.66293C1.42239 0.468141 1.64188 0.302865 1.89102 0.155297C2.02153 0.0844646 2.18169 0.0136265 2.37151 0.00182105C2.5554 -0.00998435 2.72149 0.0372394 2.852 0.0962664C3.12487 0.21432 3.29689 0.344186 3.49858 0.46224C3.69433 0.580294 3.87821 0.698346 4.06211 0.810497C4.41802 1.0348 4.75615 1.24139 5.07055 1.44208C6.3044 2.22124 7.03996 2.73478 6.99844 2.81151C6.95691 2.88235 6.1383 2.49867 4.85107 1.81985C4.52481 1.64277 4.17483 1.45389 3.80112 1.2532C3.61129 1.14695 3.41553 1.0407 3.21978 0.934449C3.02402 0.8282 2.80455 0.692445 2.63252 0.627515C2.4427 0.562585 2.35964 0.568483 2.17574 0.668829C1.99185 0.780981 1.79611 0.934448 1.63001 1.09972C1.28596 1.43618 1.00715 1.85528 0.823257 2.3334C0.443611 3.28373 0.580057 4.3167 1.00123 5.10176C1.41646 5.89272 2.08677 6.41216 2.71556 6.67188C3.35028 6.9375 3.9316 6.97292 4.32311 6.97292C4.72649 6.95521 4.94598 6.91979 4.96378 6.96111Z" fill="#263238"/>
</svg>
