<svg width="51" height="58" viewBox="0 0 51 58" fill="none" xmlns="http://www.w3.org/2000/svg">
<path d="M1.37082 13.9928C1.37082 13.9928 -1.22196 14.7072 0.724108 20.0033C2.67018 25.2934 3.31689 24.9746 4.61625 29.9282C5.91561 34.8759 7.42857 39.3985 9.70096 42.1971C11.9734 44.9957 20.4103 50.6991 20.4103 50.6991L27.981 43.5964C27.981 43.5964 26.735 38.3003 27.0317 34.7047C27.3283 31.1091 28.0878 22.2823 27.981 20.7767C27.8742 19.2712 26.2485 15.6106 26.2485 15.6106V13.1072L22.3564 1.18667C22.3564 1.18667 20.1908 0.218381 19.4373 3.66052L18.1379 0.00582944C18.1379 0.00582944 16.085 -0.318902 15.5451 3.87897C15.0052 8.07685 15.9782 13.8866 15.9782 13.8866L14.8984 21.2078L13.2786 26.1554L11.8725 26.368C11.8725 26.368 9.75435 25.7953 8.59739 21.8277C7.42856 17.866 4.28993 13.1308 1.37082 13.9928Z" fill="#FFBE9D"/>
<path d="M25.4419 32.7089C25.4359 32.7089 25.4241 32.6145 25.4063 32.4373C25.3944 32.2307 25.3766 31.9709 25.3529 31.6462C25.3113 30.9259 25.2579 29.9281 25.1926 28.6823C25.074 26.114 24.9138 22.536 24.7239 18.3618L24.7595 18.4504C24.4094 18.0371 23.7923 17.9131 23.2287 18.0548C22.6531 18.1906 22.1428 18.5448 21.8224 19.0762C21.1638 20.133 21.1223 21.5146 20.9205 22.849C20.5111 25.866 20.1195 28.7354 19.7635 31.3569C19.5855 32.6617 19.3956 33.9075 19.1346 35.0588C18.8853 36.2101 18.5353 37.2611 18.1971 38.1998C17.8648 39.1386 17.5681 39.9888 17.3842 40.7563C17.2002 41.5239 17.1231 42.1969 17.1409 42.7519C17.1646 43.8619 17.491 44.4287 17.4376 44.4405C17.4257 44.4464 17.3664 44.3047 17.2536 44.0272C17.1646 43.7438 17.04 43.3187 17.0163 42.7578C16.9807 42.197 17.04 41.5003 17.2121 40.7209C17.3842 39.9416 17.669 39.0795 17.9894 38.1349C18.3157 37.1902 18.648 36.157 18.8854 35.0116C19.1286 33.8721 19.3066 32.6322 19.4787 31.3274C19.8288 28.7059 20.2085 25.8365 20.612 22.8194C20.7069 22.1464 20.7781 21.4851 20.8968 20.8179C21.0155 20.1567 21.1994 19.4954 21.5673 18.9286C21.9114 18.35 22.5166 17.9249 23.1575 17.7773C23.7923 17.6179 24.5459 17.7596 24.979 18.2791L25.0087 18.3205V18.3677C25.1511 22.542 25.2757 26.1199 25.3647 28.6941C25.3944 29.9399 25.4241 30.9377 25.4419 31.6639C25.4478 31.9886 25.4478 32.2484 25.4478 32.4551C25.4537 32.6204 25.4478 32.7089 25.4419 32.7089Z" fill="#EB996E"/>
<path d="M21.3002 19.1471C21.2824 19.153 21.1637 18.9168 20.9798 18.474C20.8018 18.0312 20.5644 17.3758 20.3449 16.5433C20.1254 15.7168 19.9177 14.7071 19.799 13.5794C19.7397 13.0126 19.6981 12.4104 19.7693 11.7846C19.8346 11.1587 20.0186 10.4975 20.422 9.93657C20.7662 9.45243 21.2527 9.06275 21.8045 8.90334L21.9232 8.8679L21.9826 8.97419C23.0803 10.899 24.0296 12.5994 24.7001 13.8215C25.0086 14.3942 25.2638 14.8725 25.4774 15.2681C25.6554 15.6105 25.7444 15.7994 25.7266 15.8112C25.7088 15.823 25.5901 15.6459 25.3824 15.3212C25.151 14.9433 24.8662 14.4769 24.528 13.9219C23.8101 12.7234 22.8251 11.0465 21.7155 9.12768L21.8935 9.19855C21.4189 9.34025 20.9857 9.67679 20.6772 10.1196C20.3152 10.6274 20.1372 11.2296 20.072 11.82C20.0067 12.4163 20.0364 13.0008 20.0838 13.5558C20.1847 14.6717 20.3627 15.6695 20.5585 16.4961C20.7484 17.3227 20.9501 17.984 21.0925 18.4386C21.2409 18.8873 21.3239 19.1412 21.3002 19.1471Z" fill="#EB996E"/>
<path d="M19.4904 20.1214C19.4667 20.1214 19.4429 19.8794 19.4192 19.4366C19.4014 18.9288 19.3717 18.3029 19.342 17.5649C19.2886 15.9826 19.2412 13.7981 19.2056 11.3832C19.1878 8.96843 19.0928 6.77799 19.3005 5.18976C19.4014 4.3986 19.5616 3.76686 19.704 3.34766C19.8464 2.92256 19.9651 2.71 19.9829 2.71591C20.0363 2.73362 19.6506 3.64876 19.5141 5.21928C19.3658 6.78388 19.4904 8.96843 19.5082 11.3832C19.5438 13.7981 19.5557 15.9826 19.5557 17.5649C19.5497 18.3029 19.5379 18.9288 19.5319 19.4424C19.526 19.8734 19.5141 20.1155 19.4904 20.1214Z" fill="#EB996E"/>
<path d="M13.0889 39.966C13.0474 39.9306 13.5161 39.3756 14.1035 38.366C14.4002 37.8641 14.7028 37.2383 14.9817 36.5298C15.2487 35.8095 15.492 35.0006 15.6581 34.1327C15.8124 33.2588 15.8658 32.4205 15.8658 31.6529C15.8539 30.8854 15.7886 30.1946 15.6878 29.6278C15.492 28.4824 15.2428 27.7975 15.2962 27.7798C15.314 27.7739 15.3911 27.9392 15.5098 28.2462C15.6344 28.5532 15.7708 29.0138 15.9014 29.5865C16.0319 30.1651 16.1209 30.8677 16.1506 31.647C16.1684 32.4323 16.115 33.2943 15.9607 34.1858C15.7946 35.0773 15.5394 35.9039 15.2487 36.6301C14.9461 37.3505 14.6138 37.9822 14.2875 38.4782C13.9671 38.9741 13.6763 39.3579 13.4509 39.6C13.2373 39.8479 13.1067 39.9778 13.0889 39.966Z" fill="#EB996E"/>
<path d="M26.3792 36.2633L32.9472 38.5305C32.9472 38.5305 39.2186 35.301 43.5439 38.5305C47.8691 41.7601 51.6248 50.268 50.4382 53.7102C50.4382 53.7102 47.4538 57.3767 45.1814 57.914C42.909 58.4512 34.0805 56.3257 30.4078 55.5523C26.7234 54.7788 20.3986 50.6872 20.3986 50.6872L26.3792 36.2633Z" fill="#FFBE9D"/>
<path d="M27.1863 45.8928C27.1626 45.8928 27.1389 45.6861 27.1151 45.3141C27.0914 44.8713 27.0558 44.3459 27.0202 43.7377C26.949 42.4034 26.86 40.5613 26.8303 38.5184C26.8006 36.4756 26.86 34.6276 26.9846 33.2932C27.0439 32.6261 27.1151 32.0888 27.1804 31.7168C27.2457 31.3448 27.2931 31.1441 27.3169 31.15C27.3643 31.1559 27.2635 31.9766 27.1982 33.305C27.1329 34.6335 27.1092 36.4756 27.1388 38.5125C27.1745 40.5081 27.2101 42.3148 27.2338 43.7318C27.2397 44.399 27.2397 44.9422 27.2279 45.3141C27.2279 45.6861 27.2101 45.8928 27.1863 45.8928Z" fill="#EB996E"/>
</svg>
