<svg width="19" height="7" viewBox="0 0 19 7" fill="none" xmlns="http://www.w3.org/2000/svg">
<path d="M18.9997 2.47595C18.9583 2.54078 18.0817 1.65674 16.2695 0.978986C14.4868 0.28355 11.721 -0.0346975 8.88419 0.760929C7.46873 1.1558 6.17171 1.71569 5.06421 2.34041C3.95672 2.97102 3.03281 3.66055 2.29843 4.28526C1.56405 4.90998 1.00142 5.45808 0.616459 5.83527C0.231501 6.21834 0.0183062 6.42461 0.000538909 6.41282C-0.011306 6.40103 0.172286 6.16529 0.533555 5.75275C0.894823 5.34609 1.43376 4.77443 2.16222 4.12025C2.88476 3.46607 3.80865 2.74705 4.92799 2.09287C6.04733 1.44458 7.36212 0.861131 8.8072 0.460371C11.7151 -0.352936 14.552 0.0124623 16.3524 0.772727C17.2644 1.14402 17.9396 1.57424 18.3719 1.90427C18.597 2.0634 18.745 2.21663 18.8516 2.31093C18.9523 2.41701 19.0056 2.47005 18.9997 2.47595Z" fill="#263238"/>
</svg>
