<svg width="7" height="17" viewBox="0 0 7 17" fill="none" xmlns="http://www.w3.org/2000/svg">
<path d="M5.64158 16.9995C5.57393 16.975 6.13355 16.0327 6.34878 14.3376C6.45333 13.4993 6.44103 12.4773 6.2012 11.382C5.96136 10.2866 5.43864 9.16068 4.67608 8.10816C3.91967 7.04952 3.06487 6.13163 2.35151 5.24434C1.62585 4.35704 1.04779 3.49423 0.666514 2.71096C0.285235 1.92769 0.106902 1.2362 0.0392562 0.75278C-0.0222403 0.269356 0.00234032 0.000100433 0.0207893 0.000100433C0.0822858 -0.0121381 0.0638399 1.09546 0.869444 2.60692C1.26302 3.3596 1.85339 4.19182 2.57905 5.05464C3.3047 5.92358 4.16565 6.84147 4.94051 7.91846C5.72151 8.98934 6.26885 10.1765 6.49639 11.3086C6.73007 12.4406 6.71161 13.4993 6.57632 14.356C6.44103 15.2188 6.20119 15.8858 6.00441 16.3264C5.91216 16.5467 5.81991 16.7119 5.75227 16.822C5.68462 16.9505 5.64773 17.0056 5.64158 16.9995Z" fill="#EB996E"/>
</svg>
