<svg width="53" height="45" viewBox="0 0 53 45" fill="none" xmlns="http://www.w3.org/2000/svg">
<path d="M7.79778 44.7468C5.70317 42.4427 3.59663 40.1089 2.06893 37.4009C0.541237 34.693 -0.36584 31.5278 0.141403 28.4636C0.433814 26.6702 1.20364 24.9659 1.32299 23.1546C1.49008 20.6605 0.439788 18.0535 1.32299 15.7197C2.71343 12.0676 7.65456 11.5034 10.6503 8.97961C12.9836 7.01399 14.1175 3.82505 16.6895 2.16823C18.9333 0.725192 21.8156 0.754884 24.4592 1.129C27.1029 1.50313 29.7644 2.16823 32.414 1.81192C34.2998 1.55657 36.0781 0.802391 37.9281 0.345132C39.778 -0.112127 41.8368 -0.230897 43.4839 0.719252C45.1309 1.6694 46.0559 3.99727 44.9757 5.55907C48.0431 4.15167 51.9399 6.53297 52.7813 9.78723C53.6227 13.0415 51.9399 16.563 49.338 18.7068C46.7362 20.8565 43.3764 21.8541 40.0585 22.4777C30.6595 24.2414 20.4669 23.2437 12.3689 18.1842" fill="#263238"/>
</svg>
