<svg width="18" height="5" viewBox="0 0 18 5" fill="none" xmlns="http://www.w3.org/2000/svg">
<path d="M17.9984 4.68221C17.9507 4.72974 17.2699 3.79091 15.8009 2.70949C14.3499 1.62806 11.9971 0.475336 9.21445 0.320846C6.4258 0.172298 3.95959 1.05764 2.40105 1.9727C0.818622 2.88775 0.0423432 3.74338 0.000543184 3.69585C-0.0113997 3.68396 0.173717 3.46412 0.543945 3.1076C0.920145 2.75109 1.49936 2.27574 2.28759 1.7885C3.84614 0.808083 6.36608 -0.142629 9.23237 0.0178028C12.0987 0.178234 14.4992 1.39632 15.9383 2.53717C16.6668 3.10759 17.1983 3.6483 17.5267 4.04047C17.8551 4.43858 18.0164 4.67626 17.9984 4.68221Z" fill="#263238"/>
</svg>
