<svg width="42" height="38" viewBox="0 0 42 38" fill="none" xmlns="http://www.w3.org/2000/svg">
<path d="M41.9519 9.92255C41.3927 13.1607 34.7954 16.1206 29.3284 15.9667C24.2897 15.8187 21.7971 13.3324 18.1326 11.5623C15.8126 10.4435 15.8126 10.4435 12.6715 10.9526C10.1254 11.367 8.81073 14.3506 7.383 16.4876C10.1016 22.3897 9.0011 29.2508 7.85297 35.6442C7.72804 36.3487 7.56741 37.1123 7.02606 37.5859C6.10994 38.391 4.61677 37.9115 3.71849 37.0887C2.27291 35.7745 1.61259 33.815 1.14263 31.9266C0.0658856 27.6169 -0.350545 23.1001 0.333576 18.7076C1.0177 14.3151 2.84401 10.0528 5.86009 6.7732C9.62573 2.67668 15.1344 0.314663 20.7085 0.0305108C26.2826 -0.253641 31.8805 1.46311 36.5444 4.5059C38.7038 5.9089 40.7264 7.65526 41.9519 9.92255Z" fill="#263238"/>
</svg>
