<svg width="17" height="17" viewBox="0 0 17 17" fill="none" xmlns="http://www.w3.org/2000/svg">
<path d="M16.9862 8.50297C16.938 8.50896 16.9923 7.75348 16.6609 6.47036C16.3355 5.21123 15.4919 3.35851 13.5878 1.93149C12.6478 1.22997 11.4607 0.636374 10.0929 0.402535C8.73716 0.174691 7.20062 0.216659 5.74242 0.774276C5.0073 1.0261 4.3023 1.40984 3.65153 1.8955C2.99474 2.36918 2.3982 2.96278 1.9041 3.64631C0.885769 4.99538 0.313327 6.72219 0.29525 8.50896C0.313327 10.2957 0.885764 12.0225 1.89807 13.3716C2.39217 14.0552 2.9887 14.6428 3.6455 15.1224C4.29627 15.6081 5.00126 15.9918 5.73639 16.2437C7.19459 16.7953 8.7251 16.8432 10.0869 16.6154C11.4547 16.3756 12.6418 15.782 13.5818 15.0864C15.4859 13.6534 16.3295 11.8067 16.6488 10.5476C16.9923 9.25246 16.938 8.49697 16.9862 8.50297C16.9983 8.50297 16.9983 8.68884 16.9923 9.0366C16.9923 9.21048 16.9862 9.43233 16.9441 9.68416C16.9079 9.94198 16.8778 10.2358 16.7874 10.5596C16.4921 11.8427 15.6666 13.7554 13.7324 15.2483C12.7743 15.9798 11.5572 16.6034 10.1472 16.8552C8.74921 17.1011 7.16447 17.0651 5.65204 16.5015C4.89281 16.2437 4.15768 15.8479 3.48281 15.3443C2.80192 14.8526 2.18127 14.247 1.66909 13.5395C0.608582 12.1425 0.0120513 10.3497 0 8.49698C0.0180769 6.64425 0.614613 4.85148 1.67512 3.45444C2.1873 2.74692 2.80795 2.13535 3.48884 1.64968C4.16371 1.15202 4.89883 0.756294 5.65805 0.498471C7.17049 -0.0651419 8.75524 -0.101124 10.1532 0.144707C11.5632 0.40253 12.7803 1.02611 13.7384 1.75161C15.6727 3.24458 16.4982 5.15127 16.7934 6.44038C16.8838 6.76416 16.92 7.05796 16.9501 7.31579C16.9923 7.56761 17.0043 7.78946 16.9983 7.96334C16.9983 8.3171 16.9983 8.50297 16.9862 8.50297Z" fill="#263238"/>
</svg>
