<svg width="46" height="61" viewBox="0 0 46 61" fill="none" xmlns="http://www.w3.org/2000/svg">
<path d="M27.6377 38.2014C27.8263 38.2952 25.4808 19.9283 25.4808 19.9283C25.4808 19.9283 26.96 5.98895 27.7909 5.34388L27.8145 0.423759C27.8145 0.423759 30.1069 -0.960221 30.7198 1.27407C30.7198 1.27407 32.7529 -0.479348 33.1064 3.69602C33.46 7.87725 33.5366 12.1464 33.5366 12.1464L38.0566 23.3941L38.7991 23.7694C38.7991 23.7694 39.7715 14.9554 40.3372 13.6594C40.903 12.3634 41.2919 9.20845 43.4311 9.68346C45.5762 10.1585 45.7529 11.9236 45.3699 14.7971C44.9868 17.6706 44.5036 20.6379 44.6863 22.4969C44.8631 24.3559 45.7117 28.4433 45.4524 31.6862C45.1931 34.935 43.4075 38.3598 41.5276 40.7641C39.6536 43.1685 36.0706 48.1414 34.12 49.6426C33.4365 50.1704 27.6377 38.2014 27.6377 38.2014Z" fill="#FFBE9D"/>
<path d="M29.9238 23.254C29.9002 23.254 29.9061 22.9725 29.9356 22.4682C29.9768 21.9052 30.024 21.1897 30.0829 20.3336C30.2185 18.5332 30.4306 16.0468 30.684 13.3023C30.8137 11.9359 30.9374 10.6282 31.0494 9.43774C31.1083 8.84544 31.1437 8.28835 31.0671 7.77815C30.9964 7.26796 30.796 6.82814 30.5013 6.51147C29.9061 5.8664 29.1341 5.70218 28.6567 5.70805C28.1558 5.70218 27.8965 5.83707 27.8847 5.80775C27.8788 5.79602 27.9436 5.7667 28.0674 5.71392C28.197 5.667 28.3915 5.60837 28.6508 5.59077C29.1576 5.55559 29.9827 5.68459 30.6605 6.37071C30.9964 6.71084 31.2321 7.20344 31.3146 7.74295C31.4089 8.28833 31.3735 8.86889 31.3264 9.46705C31.2203 10.6634 31.1025 11.9652 30.9846 13.3375C30.7312 16.082 30.4837 18.5625 30.2951 20.357C30.1949 21.2073 30.1124 21.9228 30.0475 22.4799C29.9886 22.9783 29.9415 23.254 29.9238 23.254Z" fill="#EB996E"/>
<path d="M32.3524 15.7411C32.3996 15.7763 31.8927 16.2162 31.5509 17.1896C31.1855 18.1455 31.0559 19.5881 30.7966 21.1539C30.5549 22.7255 30.3133 24.1447 30.1306 25.1651C29.942 26.1913 29.8065 26.8188 29.7652 26.8129C29.724 26.8071 29.7829 26.162 29.9184 25.1299C30.0481 24.0978 30.2544 22.6727 30.496 21.1011C30.7494 19.5412 30.9144 18.0927 31.3506 17.1017C31.5568 16.6091 31.8043 16.2513 32.0047 16.0285C32.1992 15.8174 32.3406 15.7294 32.3524 15.7411Z" fill="#EB996E"/>
<path d="M30.6904 1.03372C30.714 1.02785 30.767 1.2331 30.8495 1.61428C30.932 1.98959 31.0322 2.53496 31.1442 3.21521C31.3682 4.56986 31.6157 6.45231 31.7748 8.54586C31.928 10.6394 31.9634 12.5394 31.9398 13.9117C31.928 14.5978 31.9103 15.1549 31.8809 15.5361C31.8573 15.9172 31.8337 16.1284 31.8102 16.1284C31.763 16.1284 31.7571 15.278 31.7218 13.9117C31.6864 12.5394 31.6216 10.6511 31.4683 8.5693C31.3151 6.48748 31.1029 4.60506 30.932 3.24454C30.7611 1.87817 30.6492 1.03958 30.6904 1.03372Z" fill="#EB996E"/>
<path d="M43.7316 18.2513C43.7788 18.3216 43.0716 18.6442 42.2111 18.3803C41.3448 18.1222 40.9441 17.4596 41.0207 17.4303C41.0914 17.3716 41.5393 17.8701 42.2995 18.0929C43.0539 18.3275 43.7081 18.1633 43.7316 18.2513Z" fill="#EB996E"/>
<path d="M27.8911 35.9149L15.9459 40.9113H8.82706C8.82706 40.9113 1.79075 43.0987 0.706425 49.6608C-0.377896 56.2288 -0.53111 59.6066 2.56274 60.4159C5.65659 61.2251 14.396 61.319 18.7274 59.8881C23.0588 58.4572 34.4088 49.3441 34.4088 49.3441L35.5049 42.7527L27.8911 35.9149Z" fill="#FFBE9D"/>
<path d="M30.6904 43.1747C30.6727 43.1864 30.5548 43.0808 30.3486 42.8639C30.1364 42.6586 29.8771 42.3185 29.5706 41.8845C28.9813 41.0049 28.333 39.6737 27.9028 38.1255C27.4549 36.5774 27.2663 35.1289 27.1661 34.085C27.0777 33.0412 27.0777 32.3903 27.119 32.3844C27.1661 32.3785 27.2368 33.0236 27.3783 34.0557C27.5315 35.0878 27.7555 36.5128 28.1916 38.0376C28.6159 39.5681 29.217 40.8759 29.7474 41.7672C30.2955 42.6527 30.7316 43.1336 30.6904 43.1747Z" fill="#EB996E"/>
</svg>
