<svg width="12" height="6" viewBox="0 0 12 6" fill="none" xmlns="http://www.w3.org/2000/svg">
<path d="M0 0.12814C0 0.104358 0.191207 0.0746333 0.543741 0.0389595C0.896274 -0.00265991 1.41012 -0.0145504 2.04349 0.0211234C2.67686 0.0508515 3.42973 0.157866 4.24832 0.348126C5.06094 0.550278 5.94526 0.847559 6.82361 1.25781C7.69598 1.67995 8.48471 2.17344 9.15393 2.67882C9.81717 3.19609 10.3729 3.70742 10.7971 4.18307C11.2213 4.65277 11.538 5.05708 11.7232 5.35436C11.9144 5.65164 12.016 5.81811 11.9981 5.83C11.9503 5.86568 11.5141 5.21761 10.6358 4.33171C10.1996 3.88579 9.63791 3.39823 8.98064 2.91069C8.31143 2.4291 7.54064 1.95345 6.68619 1.5432C5.82577 1.1389 4.97132 0.847566 4.17662 0.633523C3.37595 0.431371 2.64698 0.306504 2.02557 0.252994C0.782735 0.12219 0 0.187597 0 0.12814Z" fill="#263238"/>
</svg>
