<svg width="10" height="13" viewBox="0 0 10 13" fill="none" xmlns="http://www.w3.org/2000/svg">
<path d="M7.86203 0.227773C7.64763 0.148533 -0.77515 -1.70448 0.0579405 6.67063C0.891031 15.0397 10.006 12.315 9.9999 12.0712C9.98765 11.8274 7.86203 0.227773 7.86203 0.227773Z" fill="#FFBE9D"/>
<path d="M6.2696 9.32213C6.23284 9.29775 6.13482 9.43794 5.89592 9.57814C5.66315 9.71224 5.25886 9.82805 4.80556 9.70615C3.88671 9.46842 2.99849 8.13962 2.80859 6.63405C2.71058 5.87212 2.80247 5.13457 3.01075 4.50674C3.20677 3.86673 3.56205 3.40348 4.0031 3.28157C4.43802 3.13528 4.78106 3.373 4.9097 3.59853C5.04447 3.82406 5.00771 3.99474 5.05671 4.00083C5.08121 4.01912 5.2221 3.84235 5.12409 3.501C5.07508 3.33643 4.95258 3.15357 4.73819 3.00728C4.51766 2.86099 4.2175 2.81222 3.90509 2.87318C3.26189 2.98289 2.73508 3.63511 2.50231 4.32389C2.23278 5.01877 2.1164 5.85383 2.22666 6.70719C2.44719 8.38953 3.47016 9.88291 4.72592 10.1084C5.33236 10.206 5.81016 9.98043 6.04293 9.7549C6.27571 9.52327 6.30023 9.33432 6.2696 9.32213Z" fill="#EB996E"/>
</svg>
