<svg width="45" height="88" viewBox="0 0 45 88" fill="none" xmlns="http://www.w3.org/2000/svg">
<path d="M34.3318 68.4476C33.875 64.9291 33.5012 61.9951 33.4775 61.6291C33.4775 61.6291 45.295 58.9843 44.6424 47.0947C44.328 41.3506 42.7084 29.5613 41.1244 18.9173C39.4218 7.4881 29.1646 -0.717768 17.5785 0.0496873L16.4276 0.126436C4.05245 1.67315 -1.53593 12.9961 0.362465 25.2635L7.03649 66.3932C7.03649 66.3932 9.88407 75.4905 15.9826 77.0667L23.6711 88L24.9407 83.2949L30.6714 78.3301C30.6714 78.3301 31.9885 76.9133 33.4953 74.1445C34.7411 71.8835 34.4801 69.5516 34.3318 68.4476Z" fill="#FFBE9D"/>
<path d="M33.4842 61.4578C33.4842 61.4578 25.9792 62.5736 17.6199 58.0928C17.6199 58.0928 21.8737 66.3991 33.7156 64.5335L33.4842 61.4578Z" fill="#EB996E"/>
<path d="M38.9536 24.9206C38.7578 25.1567 37.3992 24.2889 35.566 24.4188C33.7327 24.5191 32.4453 25.5463 32.2317 25.3397C32.1249 25.2453 32.3148 24.832 32.8725 24.3715C33.4242 23.9111 34.3794 23.4329 35.5244 23.362C36.6695 23.2912 37.6603 23.6454 38.2417 24.0409C38.835 24.4247 39.0485 24.8143 38.9536 24.9206Z" fill="#263238"/>
<path d="M20.9424 26.4615C20.7467 26.6976 19.388 25.8298 17.5548 25.9597C15.7215 26.06 14.4341 27.0872 14.2205 26.8806C14.1138 26.7862 14.3036 26.3729 14.8613 25.9125C15.4071 25.452 16.3682 24.9738 17.5073 24.903C18.6524 24.8321 19.6431 25.1863 20.2246 25.5818C20.8178 25.9656 21.0374 26.3552 20.9424 26.4615Z" fill="#263238"/>
<path d="M28.5059 39.561C28.4881 39.4607 29.6153 39.1832 31.4486 38.829C31.9113 38.7522 32.3503 38.6283 32.4097 38.3036C32.4987 37.9612 32.2673 37.4712 32.0062 36.9399C31.4901 35.8418 30.9502 34.6906 30.3807 33.4804C28.1143 28.551 26.4412 24.4894 26.643 24.4008C26.8447 24.3123 28.8381 28.2322 31.1045 33.1616C31.6503 34.3777 32.1724 35.5348 32.6707 36.6447C32.8843 37.1642 33.2284 37.7427 33.0386 38.4571C32.9377 38.8113 32.6114 39.0887 32.3147 39.1891C32.0181 39.3013 31.7571 39.3249 31.5257 39.3544C29.6746 39.5787 28.5237 39.6614 28.5059 39.561Z" fill="#263238"/>
<path d="M20.9307 19.2717C20.7823 19.7794 18.9372 19.6672 16.8014 20.0686C14.6597 20.4287 12.9629 21.1726 12.6485 20.7416C12.5061 20.535 12.779 20.0509 13.4494 19.5196C14.1139 18.9942 15.1937 18.4629 16.4751 18.2326C17.7566 18.0083 18.955 18.1323 19.7619 18.3979C20.5688 18.6695 20.9959 19.0355 20.9307 19.2717Z" fill="#263238"/>
<path d="M37.9207 19.6787C37.624 20.1155 36.3307 19.7672 34.8119 19.8499C33.2872 19.8794 32.0235 20.3162 31.6972 19.903C31.5548 19.7023 31.7268 19.2713 32.2667 18.8404C32.7947 18.4153 33.7024 18.0316 34.7466 17.9903C35.7908 17.9548 36.7222 18.2677 37.2799 18.6574C37.8495 19.0529 38.0512 19.4661 37.9207 19.6787Z" fill="#263238"/>
</svg>
