<svg width="50" height="50" viewBox="0 0 50 50" fill="none" xmlns="http://www.w3.org/2000/svg">
<path d="M25 50C38.8071 50 50 38.8071 50 25C50 11.1929 38.8071 0 25 0C11.1929 0 0 11.1929 0 25C0 38.8071 11.1929 50 25 50Z" fill="#07E5CA"/>
<path d="M25.2109 33.4376L21.9442 30.5402L18.3865 35.4599L31.9486 49.0207C40.3553 46.5931 46.94 39.8724 49.1757 31.3859L31.9346 14.145L16.1582 18.4879L23.0847 25.3994L22.7307 26.9751L28.1715 32.2368C28.1715 32.2367 26.3021 33.6394 25.2109 33.4376Z" fill="#00B59B"/>
<path d="M31.9346 14.1448C30.3679 12.3988 27.7512 11.3564 24.9349 11.3564C24.3642 11.3564 23.7917 11.4089 23.2335 11.5123L23.0615 11.544C21.3479 11.8606 19.7954 12.6483 18.5718 13.8218C17.3729 14.9724 16.5719 16.4175 16.2554 18.0008L16.1581 18.4876L21.944 18.9254L22.0616 18.6213C22.397 17.7551 23.2054 17.106 24.1713 16.9273L24.3433 16.8956C25.4345 16.694 26.5551 17.0621 27.2684 17.857C28.2142 18.9106 28.1197 20.6033 27.062 21.5534C26.5497 22.0138 24.0278 22.5453 23.189 22.5104L22.7307 22.4907V26.9749L23.189 26.9553C24.0334 26.9198 26.5499 27.452 27.0621 27.9122C28.1197 28.8623 28.2142 30.555 27.2683 31.6087C26.5551 32.4035 25.4344 32.7717 24.3432 32.57L24.1714 32.5383C23.2054 32.3597 22.397 31.7105 22.0616 30.8443L21.944 30.5402L16.1581 30.978L16.2554 31.4648C16.5718 33.0481 17.3728 34.4933 18.5719 35.6439C19.7953 36.8174 21.3479 37.605 23.0615 37.9216L23.2333 37.9533C23.7917 38.0567 24.3642 38.1092 24.9349 38.1092C27.7512 38.1092 30.3679 37.0668 31.9345 35.3209C34.5743 32.3793 34.4499 27.806 31.7092 24.7328C34.4499 21.6597 34.5744 17.0863 31.9346 14.1448Z" fill="#F8FFFB"/>
<path d="M31.709 24.7327C34.4502 27.8059 34.5742 32.3792 31.9346 35.3215C30.3799 37.053 27.792 38.093 25 38.1086V32.6233C25.8672 32.6067 26.6992 32.2444 27.2686 31.6086C28.2139 30.5549 28.1201 28.8625 27.0625 27.9124C26.7793 27.6584 25.8857 27.3821 25 27.1917V22.2737C25.8857 22.0833 26.7793 21.8079 27.0625 21.554C28.1201 20.6038 28.2139 18.9114 27.2686 17.8577C26.6992 17.2219 25.8672 16.8596 25 16.843V11.3577C27.792 11.3733 30.3799 12.4124 31.9346 14.1448C34.5742 17.0862 34.4502 21.6594 31.709 24.7327Z" fill="#D8D8D8"/>
</svg>
