<svg width="50" height="50" viewBox="0 0 50 50" fill="none" xmlns="http://www.w3.org/2000/svg">
<path d="M24.9999 49.9999C38.807 49.9999 49.9999 38.807 49.9999 24.9999C49.9999 11.1929 38.807 0 24.9999 0C11.1929 0 0 11.1929 0 24.9999C0 38.807 11.1929 49.9999 24.9999 49.9999Z" fill="#FF6529"/>
<path d="M49.0905 31.7L29.0409 11.6505L12.5234 38.3496L24.1581 49.9844C24.4377 49.9936 24.7181 50 24.9999 50C36.486 50 46.1617 42.2533 49.0905 31.7Z" fill="#E53B07"/>
<path d="M29.0409 11.6505H20.9589L12.5234 38.3496H18.4638L20.4658 32.0118H29.5341L31.536 38.3496H37.4765L29.0409 11.6505ZM22.2548 26.3477L24.9999 17.6602L27.745 26.3477H22.2548Z" fill="#F8FFFB"/>
<path d="M29.0409 11.6505H24.9999V17.6602L27.745 26.3477H24.9999V32.0118H29.5341L31.5361 38.3496H37.4765L29.0409 11.6505Z" fill="#D8D8D8"/>
</svg>
