<svg width="297" height="185" viewBox="0 0 297 185" fill="none" xmlns="http://www.w3.org/2000/svg">
<path d="M274.518 180.398H17.5596C12.8144 180.398 8.97114 176.573 8.97114 171.851V8.54651C8.97114 3.82452 12.8144 0 17.5596 0H274.518C279.263 0 283.106 3.82452 283.106 8.54651V171.851C283.106 176.567 279.263 180.398 274.518 180.398Z" fill="#455A64"/>
<path d="M286.508 184.527H10.4924C4.69801 184.527 0 179.852 0 174.086V168.742H297V174.086C297 179.858 292.302 184.527 286.508 184.527Z" fill="#455A64"/>
<path d="M119.018 167.053L122.702 172.889H174.563L177.982 167.053H119.018Z" fill="#263238"/>
<path d="M280.748 167.053C280.748 167.153 219.904 167.229 144.866 167.229C69.8036 167.229 8.97114 167.153 8.97114 167.053C8.97114 166.953 69.8036 166.877 144.866 166.877C219.904 166.877 280.748 166.953 280.748 167.053Z" fill="#263238"/>
<path d="M272.255 162.284H18.7569C17.69 162.284 16.8293 161.422 16.8293 160.366V12.295C16.8293 11.2333 17.6958 10.3769 18.7569 10.3769H272.261C273.328 10.3769 274.188 11.2392 274.188 12.295V160.366C274.182 161.422 273.322 162.284 272.255 162.284Z" fill="#EBEBEB"/>
<path d="M273.911 162.507H16.5463L16.8234 21.7269H273.911V162.507Z" fill="white"/>
<path d="M37.932 16.2428C37.932 17.3749 37.0124 18.2899 35.8747 18.2899C34.7369 18.2899 33.8173 17.3749 33.8173 16.2428C33.8173 15.1106 34.7369 14.1956 35.8747 14.1956C37.0124 14.1956 37.932 15.1106 37.932 16.2428Z" fill="#263238"/>
<path d="M25.4771 16.2428C25.4771 17.3749 24.5575 18.2899 23.4197 18.2899C22.282 18.2899 21.3624 17.3749 21.3624 16.2428C21.3624 15.1106 22.282 14.1956 23.4197 14.1956C24.5575 14.1956 25.4771 15.1106 25.4771 16.2428Z" fill="#263238"/>
<path d="M31.4536 16.2428C31.4536 17.3749 30.534 18.2899 29.3963 18.2899C28.2585 18.2899 27.3389 17.3749 27.3389 16.2428C27.3389 15.1106 28.2585 14.1956 29.3963 14.1956C30.534 14.1956 31.4536 15.1106 31.4536 16.2428Z" fill="#263238"/>
<path d="M274.182 148.911H16.5458V162.508H274.182V148.911Z" fill="#263238"/>
<path d="M26.2845 157.281V157.715H24.233V157.369L25.3413 156.324C25.6124 156.066 25.6596 155.908 25.6596 155.75C25.6596 155.497 25.4827 155.351 25.1408 155.351C24.8697 155.351 24.6457 155.445 24.4865 155.638L24.1269 155.362C24.3391 155.075 24.7282 154.905 25.1821 154.905C25.7893 154.905 26.1783 155.21 26.1783 155.703C26.1783 155.973 26.1017 156.219 25.7185 156.577L24.9758 157.281H26.2845Z" fill="white"/>
<path d="M26.5614 155.907C26.5614 155.708 26.7087 155.579 26.8856 155.579C27.0624 155.579 27.2098 155.708 27.2098 155.907C27.2098 156.095 27.0624 156.236 26.8856 156.236C26.7087 156.236 26.5614 156.101 26.5614 155.907ZM26.5614 157.415C26.5614 157.215 26.7087 157.086 26.8856 157.086C27.0624 157.086 27.2098 157.215 27.2098 157.415C27.2098 157.603 27.0624 157.743 26.8856 157.743C26.7087 157.743 26.5614 157.608 26.5614 157.415Z" fill="white"/>
<path d="M28.5069 154.946V157.715H27.9881V155.375H27.3987V154.94H28.5069V154.946Z" fill="white"/>
<path d="M31.5419 157.087H31.0467V157.715H30.5457V157.087H29.0189V156.73L30.3924 154.946H30.9465L29.6555 156.653H30.5692V156.096H31.0526V156.653H31.5478V157.087H31.5419Z" fill="white"/>
<path d="M247.256 155.978H36.0873V156.935H247.256V155.978Z" fill="white"/>
<path d="M101.918 154.952H35.9277V157.51H101.918V154.952Z" fill="#FF6652"/>
<path d="M104.052 156.46C104.052 158.225 102.614 159.657 100.84 159.657C99.0653 159.657 97.6269 158.225 97.6269 156.46C97.6269 154.694 99.0653 153.263 100.84 153.263C102.614 153.263 104.052 154.694 104.052 156.46Z" fill="#FF6652"/>
<path d="M252.573 156.43C252.573 156.981 252.125 157.328 251.553 157.328C250.793 157.328 250.351 156.841 250.351 155.949C250.351 154.999 250.905 154.477 251.712 154.477C251.99 154.477 252.255 154.535 252.443 154.653L252.255 155.04C252.102 154.94 251.919 154.905 251.724 154.905C251.2 154.905 250.87 155.228 250.87 155.861V155.867C251.035 155.673 251.306 155.58 251.612 155.58C252.166 155.58 252.573 155.914 252.573 156.43ZM252.072 156.454C252.072 156.166 251.854 155.984 251.518 155.984C251.182 155.984 250.952 156.184 250.952 156.459C250.952 156.717 251.158 156.929 251.53 156.929C251.854 156.923 252.072 156.741 252.072 156.454Z" fill="white"/>
<path d="M252.827 155.479C252.827 155.28 252.974 155.151 253.151 155.151C253.328 155.151 253.475 155.28 253.475 155.479C253.475 155.667 253.328 155.808 253.151 155.808C252.974 155.808 252.827 155.667 252.827 155.479ZM252.827 156.987C252.827 156.787 252.974 156.658 253.151 156.658C253.328 156.658 253.475 156.787 253.475 156.987C253.475 157.174 253.328 157.315 253.151 157.315C252.974 157.315 252.827 157.174 252.827 156.987Z" fill="white"/>
<path d="M253.812 155.902C253.812 154.993 254.313 154.477 254.973 154.477C255.639 154.477 256.14 154.993 256.14 155.902C256.14 156.811 255.639 157.328 254.973 157.328C254.313 157.328 253.812 156.811 253.812 155.902ZM255.615 155.902C255.615 155.233 255.356 154.923 254.973 154.923C254.596 154.923 254.33 155.233 254.33 155.902C254.33 156.571 254.596 156.882 254.973 156.882C255.356 156.882 255.615 156.571 255.615 155.902Z" fill="white"/>
<path d="M256.481 155.902C256.481 154.993 256.982 154.477 257.642 154.477C258.308 154.477 258.81 154.993 258.81 155.902C258.81 156.811 258.308 157.328 257.642 157.328C256.982 157.328 256.481 156.811 256.481 155.902ZM258.291 155.902C258.291 155.233 258.031 154.923 257.648 154.923C257.271 154.923 257.006 155.233 257.006 155.902C257.006 156.571 257.271 156.882 257.648 156.882C258.026 156.882 258.291 156.571 258.291 155.902Z" fill="white"/>
<path d="M263.307 155.732H262.346V152.969H265.111V153.926H263.307V155.732Z" fill="white"/>
<path d="M265.117 159.334H262.34V156.583H263.301V158.378H265.117V159.334Z" fill="white"/>
<path d="M269.537 159.334H266.767V158.377H268.571V156.571H269.537V159.334Z" fill="white"/>
<path d="M269.538 155.726H268.577V153.926H266.761V152.969H269.538V155.726Z" fill="white"/>
<path d="M51.8431 30.0975H36.6703L29.0899 43.1666L36.6703 56.2415H51.8431L59.4235 43.1666L51.8431 30.0975Z" fill="#EBEBEB"/>
<path d="M37.9086 45.7303C37.2307 44.9854 36.5468 44.2287 36.0517 43.3488C35.5565 42.4689 35.2617 41.4483 35.4268 40.4511C35.5211 39.8704 35.7687 39.319 35.81 38.7324C35.863 37.9229 35.5211 37.0782 35.81 36.3216C36.258 35.1367 37.8614 34.9548 38.8341 34.1395C39.5886 33.5001 39.96 32.4677 40.7912 31.9339C41.5163 31.4647 42.4536 31.4764 43.3083 31.5996C44.1631 31.7227 45.0297 31.9339 45.8844 31.8225C46.4975 31.7403 47.0693 31.494 47.6706 31.3473C48.2719 31.2007 48.938 31.1596 49.4686 31.4705C49.9991 31.7814 50.2998 32.5322 49.952 33.0367C50.9482 32.5792 52.2097 33.3534 52.4809 34.4034C52.7521 35.4593 52.2097 36.5973 51.3667 37.2953C50.5238 37.9933 49.4332 38.3159 48.3603 38.5154C45.3185 39.0844 42.0115 38.7617 39.3882 37.1252" fill="#263238"/>
<path d="M51.974 48.9563C51.8738 47.0851 51.3432 43.2488 50.8304 39.7821C50.2763 36.0514 46.9338 33.3766 43.1552 33.6289L42.7779 33.6523C38.7457 34.1568 36.9242 37.8464 37.5432 41.8469L38.7281 56.2475H48.5726C48.5726 56.2475 48.3427 53.7193 48.3368 53.6959C48.3368 53.69 52.1862 52.8277 51.974 48.9563Z" fill="#FFBE9D"/>
<path d="M48.3363 53.6377C48.3363 53.6377 45.8899 54.0014 43.1665 52.5408C43.1665 52.5408 44.5518 55.245 48.413 54.6408L48.3363 53.6377Z" fill="#EB996E"/>
<path d="M50.1226 41.7288C50.0577 41.8051 49.6156 41.5235 49.0202 41.5646C48.4248 41.5998 48.0063 41.9341 47.9355 41.8638C47.9002 41.8344 47.965 41.6995 48.1418 41.547C48.3187 41.3945 48.6311 41.242 49.0025 41.2185C49.3739 41.195 49.6981 41.3124 49.8868 41.4414C50.0813 41.5646 50.152 41.6936 50.1226 41.7288Z" fill="#263238"/>
<path d="M44.2513 42.2337C44.1864 42.3099 43.7443 42.0284 43.1489 42.0694C42.5535 42.1046 42.135 42.439 42.0642 42.3686C42.0289 42.3392 42.0937 42.2043 42.2765 42.0518C42.4533 41.8993 42.7657 41.7468 43.1371 41.7233C43.5085 41.6999 43.8327 41.8172 44.0214 41.9462C44.21 42.0694 44.2808 42.1985 44.2513 42.2337Z" fill="#263238"/>
<path d="M46.7147 46.4975C46.7088 46.4623 47.0743 46.3743 47.6756 46.257C47.8288 46.2336 47.9703 46.1925 47.988 46.0869C48.0175 45.9755 47.9408 45.8171 47.8583 45.6411C47.6874 45.2833 47.5164 44.9079 47.3278 44.5149C46.5909 42.9076 46.0427 41.5878 46.1075 41.5585C46.1724 41.5292 46.8267 42.8079 47.5636 44.4152C47.7404 44.814 47.9114 45.1894 48.0764 45.5531C48.1472 45.7232 48.2592 45.9109 48.1943 46.1456C48.159 46.2629 48.0529 46.3509 47.9585 46.3861C47.8642 46.4213 47.7758 46.4271 47.6992 46.4389C47.0979 46.5034 46.7206 46.5327 46.7147 46.4975Z" fill="#263238"/>
<path d="M44.2453 39.8864C44.1981 40.0507 43.5968 40.0155 42.9012 40.1445C42.1997 40.2619 41.6515 40.5023 41.5454 40.3674C41.4982 40.3029 41.5866 40.1445 41.8047 39.9686C42.0229 39.7984 42.3707 39.6225 42.7892 39.5521C43.2077 39.4758 43.5968 39.5169 43.8621 39.6049C44.1274 39.6929 44.2688 39.8102 44.2453 39.8864Z" fill="#263238"/>
<path d="M49.7861 40.0222C49.6918 40.163 49.2674 40.0515 48.7722 40.075C48.277 40.0867 47.8644 40.2275 47.7583 40.0926C47.7111 40.0281 47.7701 39.8873 47.941 39.7465C48.112 39.6057 48.4067 39.4826 48.7486 39.4708C49.0905 39.4591 49.3912 39.5647 49.5739 39.6879C49.7566 39.8169 49.8274 39.9518 49.7861 40.0222Z" fill="#263238"/>
<path d="M38.0559 44.686C37.9851 44.6625 35.3265 44.0759 35.5918 46.7214C35.857 49.3611 38.7338 48.5046 38.7279 48.4284C38.7279 48.3463 38.0559 44.686 38.0559 44.686Z" fill="#FFBE9D"/>
<path d="M37.5486 47.5601C37.5368 47.5542 37.5074 47.5953 37.4307 47.6422C37.36 47.6833 37.2303 47.7185 37.0829 47.6833C36.7941 47.607 36.5111 47.1905 36.4522 46.7154C36.4227 46.4749 36.4522 46.2403 36.517 46.0467C36.576 45.8473 36.6939 45.7006 36.8295 45.6596C36.965 45.6126 37.077 45.6889 37.1124 45.7593C37.1537 45.8297 37.1419 45.8825 37.1596 45.8883C37.1655 45.8942 37.2126 45.8414 37.1773 45.7299C37.1596 45.6771 37.1242 45.6185 37.0535 45.5774C36.9827 45.5305 36.8884 45.5129 36.7882 45.5364C36.5878 45.5716 36.4168 45.7769 36.3461 45.9939C36.2635 46.2109 36.2223 46.4749 36.2577 46.7447C36.3284 47.2727 36.6526 47.7478 37.0476 47.8182C37.2362 47.8475 37.3895 47.7771 37.4661 47.7067C37.5545 47.6246 37.5604 47.5601 37.5486 47.5601Z" fill="#EB996E"/>
<path d="M50.6356 36.1631C50.4529 37.2131 48.313 38.1751 46.5327 38.1282C44.8939 38.0812 44.0863 37.2718 42.8956 36.6969C42.141 36.3332 42.141 36.3332 41.1212 36.4975C40.2959 36.6324 39.8656 37.6002 39.3999 38.2924C40.2841 40.2105 39.9245 42.4396 39.5531 44.5161C39.5119 44.7448 39.4588 44.9912 39.282 45.1496C38.9813 45.4135 38.4979 45.2552 38.2091 44.9853C37.7375 44.5571 37.5253 43.9236 37.372 43.3077C37.0183 41.9058 36.8886 40.4393 37.1067 39.0139C37.3307 37.5885 37.9202 36.1983 38.9047 35.1366C40.1308 33.805 41.917 33.0366 43.7326 32.9428C45.5424 32.8489 47.3639 33.4062 48.8789 34.3975C49.5745 34.8609 50.2348 35.424 50.6356 36.1631Z" fill="#263238"/>
<path d="M47.1103 47.8364C46.6564 47.6252 46.2083 47.4199 45.7544 47.2087C45.6778 47.1735 45.5953 47.1383 45.5068 47.1442C45.4125 47.1559 45.3359 47.2263 45.271 47.3026C44.9586 47.678 44.8761 48.2528 45.1237 48.681C45.3654 49.1092 45.9372 49.3321 46.3911 49.1444C46.8686 48.945 47.1044 48.3936 47.1397 47.8774L47.1103 47.8364Z" fill="#EB996E"/>
<path d="M46.4379 49.2436C46.4615 49.2671 46.155 49.4607 45.6421 49.314C45.3945 49.2378 45.1116 49.0501 44.9406 48.745C44.7638 48.4459 44.6989 48.0235 44.8522 47.6423C44.9229 47.4546 45.0408 47.2844 45.1823 47.1554C45.2531 47.0909 45.3238 47.0322 45.4122 46.9853C45.5006 46.9208 45.6834 46.9149 45.7659 46.9618C46.0725 47.1319 46.2847 47.2786 46.491 47.4135C46.886 47.6775 47.1218 47.8534 47.0982 47.8945C47.0746 47.9297 46.8034 47.8182 46.379 47.6012C46.1314 47.4722 45.8956 47.349 45.6539 47.2258C45.595 47.2082 45.6009 47.2082 45.5478 47.2375C45.4947 47.2727 45.4299 47.3196 45.3827 47.3724C45.2766 47.478 45.1882 47.6071 45.1352 47.7537C45.0173 48.047 45.0585 48.3696 45.1882 48.616C45.3179 48.8624 45.5183 49.0266 45.7188 49.1146C46.1255 49.2847 46.4262 49.1908 46.4379 49.2436Z" fill="#263238"/>
<path d="M46.008 43.1673C45.9785 43.1673 45.9844 42.9209 45.8606 42.5103C45.7427 42.1056 45.4598 41.5131 44.8467 41.0614C44.2513 40.6098 43.2786 40.3575 42.3413 40.7095C41.4099 41.0321 40.6082 42.0176 40.62 43.1673C40.6082 44.317 41.4099 45.3024 42.3413 45.625C43.2786 45.977 44.2513 45.7248 44.8467 45.2731C45.4598 44.8214 45.7486 44.229 45.8606 43.8242C45.9844 43.4136 45.9785 43.1673 46.008 43.1673C46.0198 43.1673 46.0257 43.2259 46.0316 43.3432C46.0375 43.4606 46.0257 43.6365 45.9785 43.8536C45.8901 44.2876 45.6248 44.9329 44.9764 45.4432C44.3515 45.9535 43.2845 46.2586 42.2411 45.889C41.2036 45.5488 40.2958 44.4519 40.3076 43.1673C40.2958 41.8826 41.2036 40.7857 42.2411 40.4455C43.2904 40.0701 44.3515 40.3751 44.9764 40.8913C45.6248 41.4016 45.8901 42.0528 45.9785 42.481C46.0257 42.698 46.0375 42.874 46.0316 42.9913C46.0257 43.1086 46.0198 43.1673 46.008 43.1673Z" fill="#263238"/>
<path d="M52.6279 42.909C52.5984 42.909 52.5984 42.6685 52.4864 42.2696C52.3744 41.8766 52.0974 41.3017 51.4961 40.8618C50.9184 40.4219 49.9693 40.1814 49.0556 40.5216C48.1477 40.8325 47.3696 41.7945 47.3814 42.9148C47.3696 44.0352 48.1536 44.9913 49.0556 45.3081C49.9693 45.6483 50.9184 45.4078 51.4961 44.9679C52.0974 44.5279 52.3744 43.9531 52.4864 43.5601C52.6043 43.1495 52.5984 42.909 52.6279 42.909C52.6397 42.909 52.6456 42.9676 52.6515 43.085C52.6574 43.1964 52.6456 43.3665 52.6043 43.5836C52.5218 44.0059 52.2624 44.6335 51.6317 45.138C51.0245 45.6366 49.987 45.9358 48.9612 45.5721C47.9473 45.2377 47.0631 44.1701 47.0749 42.9148C47.0631 41.6595 47.9473 40.592 48.9612 40.2576C49.9811 39.8939 51.0186 40.1931 51.6317 40.6917C52.2624 41.1903 52.5218 41.8238 52.6043 42.2461C52.6515 42.4573 52.6574 42.6274 52.6515 42.7447C52.6456 42.8503 52.6397 42.909 52.6279 42.909Z" fill="#263238"/>
<path d="M47.228 42.3048C47.169 42.3635 46.9037 42.1934 46.55 42.2051C46.1964 42.2051 45.9429 42.3869 45.878 42.3283C45.7955 42.2872 46.0431 41.9059 46.5441 41.8942C47.0452 41.8883 47.3046 42.2579 47.228 42.3048Z" fill="#263238"/>
<path d="M40.6322 42.7797C40.6852 42.8501 40.1665 43.3135 39.4827 43.8238C38.7989 44.3341 38.1976 44.6919 38.1504 44.6215C38.0974 44.5511 38.6161 44.0877 39.2999 43.5774C39.9837 43.0671 40.5791 42.7093 40.6322 42.7797Z" fill="#263238"/>
<path d="M95.3452 43.0377C95.3452 43.1198 88.5252 43.1902 80.1136 43.1902C71.702 43.1902 64.8819 43.1198 64.8819 43.0377C64.8819 42.9555 71.702 42.8852 80.1136 42.8852C88.5252 42.8852 95.3452 42.9497 95.3452 43.0377Z" fill="#263238"/>
<path d="M81.2579 46.2111C81.2579 46.2932 77.6384 46.3636 73.17 46.3636C68.7016 46.3636 65.0821 46.2932 65.0821 46.2111C65.0821 46.129 68.7016 46.0586 73.17 46.0586C77.6384 46.0527 81.2579 46.1231 81.2579 46.2111Z" fill="#263238"/>
</svg>
