<svg width="395" height="99" viewBox="0 0 395 99" fill="none" xmlns="http://www.w3.org/2000/svg">
<path d="M358.109 69.0066C358.109 69.0066 342.525 51.1588 336.647 33.3109C330.768 15.4631 333.56 17.5105 333.56 17.5105C333.56 17.5105 341.496 34.8495 347.528 43.2206C353.553 51.5975 364.288 63.8822 364.288 63.8822L358.109 69.0066Z" fill="#455A64"/>
<path d="M361.214 20.2946C360.708 19.423 359.373 19.8734 359.52 20.8679C360.473 27.1389 362.525 41.8454 362.442 51.3924C362.336 63.7882 362.448 68.5792 362.448 68.5792H368.933C368.933 68.5792 367.78 42.9569 366.316 35.1415C365.293 29.6661 363.112 23.5822 361.214 20.2946Z" fill="#455A64"/>
<path d="M364.752 66.4965C364.752 66.4965 368.832 57.9558 370.09 47.2272C370.625 42.6643 369.673 36.4986 368.256 28.2679C367.568 24.2841 367.415 21.2481 367.439 19.148C367.456 17.5568 369.561 17.042 370.343 18.4285C371.125 19.8207 373.394 24.5649 373.964 27.5425C375.534 35.6679 377.315 39.7277 375.951 47.4378C374.593 55.1479 369.567 67.0172 369.567 67.0172L364.752 66.4965Z" fill="#455A64"/>
<path d="M370.589 67.0173C370.589 67.0173 387.696 30.4266 388.883 25.0038C390.071 19.5751 394.103 7.06817 394.574 7.776C395.05 8.48383 395.761 15.0941 392.675 22.6463C389.595 30.1984 376.427 68.1346 376.427 68.1346H370.583" fill="#455A64"/>
<path d="M362.876 65.3801C362.871 65.3918 362.706 65.2748 362.394 65.0525C362.089 64.8243 361.63 64.5026 361.072 64.0463C359.931 63.1571 358.332 61.8 356.475 60.0099C352.742 56.4415 348.092 50.9368 344.065 44.1569C340.027 37.3769 337.311 30.749 335.594 25.8937C334.736 23.466 334.107 21.4771 333.701 20.0907C333.49 19.4004 333.348 18.8622 333.249 18.4936C333.149 18.1251 333.102 17.9321 333.113 17.9321C333.125 17.9262 333.196 18.1134 333.319 18.4761C333.448 18.868 333.619 19.3945 333.836 20.0497C334.283 21.4186 334.947 23.39 335.841 25.8059C337.616 30.6262 340.362 37.219 344.382 43.9697C348.398 50.7204 352.989 56.2251 356.663 59.8227C358.491 61.6362 360.061 63.0109 361.172 63.9352C361.718 64.409 362.165 64.7483 362.453 64.994C362.735 65.2397 362.882 65.3684 362.876 65.3801Z" fill="#263238"/>
<path d="M364.747 47.8236C364.723 47.8236 364.671 47.4434 364.594 46.7473C364.512 45.9868 364.406 45.004 364.277 43.8165C364.006 41.342 363.583 37.9257 362.977 34.176C362.372 30.4262 361.696 27.0509 361.173 24.6173C360.92 23.4474 360.708 22.4763 360.549 21.7334C360.402 21.0548 360.332 20.6745 360.355 20.6687C360.379 20.6628 360.497 21.0314 360.685 21.7041C360.879 22.3769 361.132 23.3538 361.425 24.5647C362.013 26.9865 362.731 30.3619 363.336 34.1233C363.942 37.8848 364.324 41.3069 364.529 43.7931C364.635 45.0333 364.7 46.0453 364.729 46.7414C364.771 47.4376 364.776 47.8236 364.747 47.8236Z" fill="#263238"/>
<path d="M368.755 18.1362C368.767 18.1303 368.837 18.2941 368.955 18.5983C369.084 18.9435 369.255 19.3939 369.466 19.9555C369.696 20.5463 369.954 21.2717 370.201 22.1316C370.454 22.9915 370.783 23.9568 371.03 25.0624C371.165 25.6123 371.306 26.1856 371.453 26.7822C371.595 27.3789 371.7 28.0166 371.83 28.6659C372.112 29.9646 372.282 31.3744 372.488 32.8544C372.823 35.8203 373.005 39.102 372.9 42.5534C372.759 45.999 372.341 49.2632 371.794 52.1998C371.483 53.6622 371.207 55.0545 370.836 56.3298C370.66 56.9674 370.513 57.5933 370.325 58.1842C370.137 58.7692 369.954 59.3307 369.778 59.8689C369.449 60.9512 369.055 61.893 368.737 62.7295C368.426 63.5719 368.114 64.2797 367.85 64.8471C367.597 65.3912 367.397 65.8299 367.238 66.1634C367.097 66.4617 367.015 66.6196 367.003 66.6138C366.991 66.6079 367.05 66.4441 367.174 66.1341C367.315 65.7948 367.491 65.3444 367.72 64.7886C367.967 64.2095 368.261 63.4958 368.549 62.6535C368.843 61.8111 369.225 60.8634 369.537 59.7812C369.702 59.243 369.878 58.6814 370.06 58.0964C370.237 57.5114 370.378 56.8855 370.548 56.2479C370.907 54.9726 371.165 53.5862 371.471 52.1296C371.994 49.2047 372.406 45.958 372.541 42.5359C372.647 39.1079 372.476 35.8436 372.165 32.8895C371.965 31.4153 371.806 30.0172 371.542 28.7185C371.418 28.0692 371.324 27.4374 371.189 26.8408C371.048 26.2441 370.918 25.6708 370.789 25.1209C370.56 24.0211 370.248 23.05 370.013 22.1901C369.784 21.3243 369.543 20.5931 369.343 19.9964C369.155 19.4231 369.008 18.9669 368.896 18.6159C368.79 18.3117 368.743 18.142 368.755 18.1362Z" fill="#263238"/>
<path d="M394.38 8.50769C394.386 8.50769 394.38 8.56619 394.368 8.67149C394.351 8.80018 394.321 8.95813 394.292 9.14532C394.215 9.56066 394.121 10.1807 393.957 10.9646C393.627 12.5382 393.075 14.8021 392.222 17.5515C391.37 20.301 390.2 23.5242 388.813 27.0634C387.431 30.6084 385.827 34.4634 384.31 38.57C382.77 42.6707 381.582 46.672 380.465 50.3048C379.36 53.9375 378.308 57.2017 377.297 59.8985C376.292 62.5953 375.328 64.7188 374.593 66.1578C374.24 66.8832 373.928 67.4214 373.723 67.7958C373.629 67.9654 373.546 68.1 373.482 68.217C373.429 68.3106 373.394 68.3574 373.388 68.3515C373.382 68.3457 373.405 68.2989 373.446 68.1994C373.505 68.0824 373.57 67.9362 373.652 67.7665C373.834 67.3863 374.128 66.8364 374.458 66.0993C375.145 64.6486 376.074 62.5192 377.044 59.8166C378.026 57.1198 379.049 53.8556 380.136 50.217C381.235 46.5843 382.417 42.5654 383.963 38.453C385.486 34.3347 387.102 30.4797 388.495 26.9464C389.895 23.4189 391.088 20.2132 391.97 17.4813C392.857 14.7495 393.439 12.5031 393.816 10.9412C394.004 10.1632 394.121 9.54896 394.221 9.13947C394.268 8.95227 394.303 8.80018 394.333 8.67149C394.356 8.56034 394.374 8.50769 394.38 8.50769Z" fill="#263238"/>
<path d="M341.626 0.422862C340.55 -0.641807 338.757 0.46966 339.198 1.92042C339.65 3.38873 340.338 5.28407 341.349 7.41926C343.701 12.3916 350.608 30.2395 353.847 40.0438C357.08 49.8423 361.636 68.1288 361.636 68.1288L368.543 67.0115C368.543 67.0115 362.224 36.9668 356.052 26.1387C351.09 17.4459 346.129 4.88044 341.626 0.422862Z" fill="#455A64"/>
<path d="M355.734 46.1742C355.757 46.1684 355.881 46.4608 356.092 46.999C356.298 47.5372 356.574 48.3269 356.886 49.3039C357.521 51.2636 358.303 54.0013 359.085 57.0432C359.867 60.0851 360.519 62.8521 360.972 64.8644C361.178 65.8121 361.354 66.6135 361.489 67.2453C361.607 67.8069 361.654 68.1228 361.63 68.1286C361.607 68.1345 361.507 67.8303 361.348 67.2746C361.178 66.6486 360.966 65.8589 360.713 64.9229C360.184 62.8579 359.49 60.1378 358.72 57.1309C357.938 54.0949 357.198 51.3513 356.627 49.3741C356.357 48.4439 356.128 47.6601 355.945 47.0341C355.793 46.4901 355.71 46.1801 355.734 46.1742Z" fill="#263238"/>
<path d="M365.104 67.5734C365.098 67.5734 365.087 67.5091 365.063 67.3921C365.04 67.2517 365.016 67.0703 364.987 66.848C364.916 66.3742 364.851 65.6664 364.704 64.7655C364.452 62.9579 363.999 60.3606 363.258 57.1841C362.524 54.0077 361.448 50.2754 360.025 46.204C358.608 42.1325 356.833 37.7334 354.817 33.1822C350.755 24.0857 346.693 16.0188 344.03 10.052C342.683 7.07443 341.637 4.64674 340.949 2.95614C340.597 2.11376 340.35 1.44688 340.173 1.0023C340.097 0.791703 340.032 0.627905 339.979 0.487509C339.938 0.370512 339.921 0.312015 339.926 0.306166C339.932 0.306166 339.962 0.358813 340.015 0.46996C340.073 0.604506 340.15 0.768305 340.238 0.9672C340.444 1.43519 340.72 2.07867 341.079 2.8918C341.808 4.56485 342.883 6.97497 344.259 9.93499C346.987 15.8667 351.078 23.9161 355.146 33.0243C357.162 37.5813 358.932 41.9979 360.337 46.087C361.742 50.176 362.794 53.9257 363.505 57.1198C364.217 60.3079 364.634 62.9228 364.84 64.7421C364.963 65.6488 365.004 66.3567 365.057 66.8363C365.075 67.0586 365.087 67.24 365.098 67.3804C365.11 67.5091 365.11 67.5734 365.104 67.5734Z" fill="#263238"/>
<path d="M368.544 67.0173C368.521 67.0232 368.439 66.6078 368.309 65.8649C368.174 65.0576 367.992 63.993 367.774 62.706C367.298 60.0443 366.569 56.3765 365.529 52.3869C364.494 48.3915 363.33 44.8348 362.43 42.2842C361.989 41.0558 361.625 40.0379 361.349 39.2657C361.09 38.552 360.961 38.1542 360.984 38.1484C361.008 38.1367 361.184 38.5169 361.484 39.2189C361.784 39.9151 362.195 40.9329 362.677 42.2023C363.635 44.7353 364.847 48.292 365.887 52.2991C366.934 56.3063 367.621 59.9917 368.039 62.6709C368.233 64.0105 368.386 65.0986 368.462 65.8532C368.533 66.5961 368.568 67.0115 368.544 67.0173Z" fill="#263238"/>
<path d="M382.722 66.0282H355.763V98.7113H382.722V66.0282Z" fill="#FF6652"/>
<g opacity="0.3">
<path opacity="0.3" d="M382.722 66.0282H355.763V98.7113H382.722V66.0282Z" fill="black"/>
</g>
<path d="M374.117 66.0282H350.203V98.7113H374.117V66.0282Z" fill="#FF6652"/>
<path d="M23.6674 54.6684C19.0763 51.7435 12.7098 51.685 8.24213 54.7971C3.99783 57.7513 1.84628 63.1214 2.0344 68.2693C2.22251 73.4171 4.72677 79.7057 9.41784 82.4142L23.1736 82.3615C27.5649 79.1441 30.5394 73.967 30.7452 68.5442C30.945 63.1156 28.2586 57.5933 23.6674 54.6684Z" fill="#455A64"/>
<path d="M16.8897 82.9059C16.8603 82.9059 16.8309 82.4847 16.8015 81.73C16.778 80.8877 16.7486 79.8113 16.7074 78.5185C16.6369 75.81 16.5311 72.0661 16.3488 67.9303C16.1666 63.7944 15.9432 60.0564 15.7727 57.3538C15.6963 56.0668 15.6316 54.9904 15.5787 54.1481C15.5375 53.3876 15.5316 52.9723 15.561 52.9664C15.5904 52.9664 15.6551 53.3817 15.7492 54.1305C15.8432 54.8851 15.9549 55.9791 16.0784 57.3304C16.3253 60.033 16.6016 63.7769 16.7838 67.9127C16.9661 72.0486 17.0249 75.7983 17.0131 78.5126C17.0072 79.8698 16.9896 80.9695 16.9661 81.7242C16.9485 82.4847 16.9191 82.9059 16.8897 82.9059Z" fill="#263238"/>
<path d="M3.41637 67.0992C3.40461 67.2221 2.658 67.2572 1.74677 67.1811C0.83555 67.1051 0.100691 66.9471 0.112449 66.8301C0.124206 66.7073 0.870822 66.6722 1.78205 66.7482C2.69327 66.8184 3.42813 66.9764 3.41637 67.0992Z" fill="#263238"/>
<path d="M3.67434 62.4781C3.62731 62.5893 2.98064 62.4079 2.23402 62.0803C1.48741 61.7527 0.923034 61.3959 0.970065 61.2848C1.0171 61.1736 1.66377 61.3491 2.41039 61.6826C3.157 62.0101 3.72138 62.367 3.67434 62.4781Z" fill="#263238"/>
<path d="M6.06151 59.0501C5.99684 59.1495 5.27373 58.8102 4.52124 58.1901C3.76874 57.5701 3.29256 56.9266 3.38074 56.8447C3.46892 56.7628 4.06857 57.2542 4.79755 57.8508C5.52653 58.4534 6.12617 58.9448 6.06151 59.0501Z" fill="#263238"/>
<path d="M8.46518 55.8149C8.35349 55.8617 8.00663 55.3235 7.68917 54.6098C7.37171 53.8961 7.20123 53.2761 7.31293 53.2293C7.42463 53.1825 7.77148 53.7206 8.08894 54.4343C8.4064 55.148 8.571 55.7681 8.46518 55.8149Z" fill="#263238"/>
<path d="M12.2336 53.5219C12.1277 53.5745 11.7515 52.9954 11.5046 52.1998C11.2518 51.4042 11.2341 50.7198 11.3517 50.6964C11.4752 50.673 11.6809 51.299 11.922 52.0653C12.1571 52.8375 12.3453 53.4692 12.2336 53.5219Z" fill="#263238"/>
<path d="M18.5179 50.9302C18.6296 50.9712 18.5649 51.4625 18.3591 52.0241C18.1593 52.5916 17.9006 53.0128 17.7889 52.9777C17.6772 52.9367 17.7419 52.4453 17.9476 51.8837C18.1475 51.3163 18.4062 50.8893 18.5179 50.9302Z" fill="#263238"/>
<path d="M23.1855 52.9244C23.2678 53.0122 22.968 53.4217 22.5153 53.837C22.0626 54.2523 21.6335 54.5156 21.5511 54.4278C21.4688 54.3401 21.7687 53.9306 22.2213 53.5152C22.6681 53.0999 23.1032 52.8367 23.1855 52.9244Z" fill="#263238"/>
<path d="M27.289 55.5639C27.3596 55.6633 26.9951 56.026 26.4719 56.377C25.9545 56.728 25.4783 56.9269 25.4078 56.8274C25.3372 56.728 25.7017 56.3653 26.2249 56.0143C26.7482 55.6633 27.2244 55.4644 27.289 55.5639Z" fill="#263238"/>
<path d="M30.2044 59.4941C30.2514 59.6052 29.6753 59.9562 28.9228 60.2779C28.1644 60.5997 27.5118 60.7693 27.4648 60.6582C27.4178 60.547 27.9939 60.196 28.7523 59.8743C29.5048 59.5584 30.1573 59.3829 30.2044 59.4941Z" fill="#263238"/>
<path d="M31.3566 63.7883C31.3743 63.9053 30.7864 64.0808 30.0515 64.1685C29.3167 64.2621 28.7053 64.2329 28.6935 64.1159C28.6759 63.9989 29.2638 63.8234 29.9986 63.7356C30.7335 63.642 31.339 63.6654 31.3566 63.7883Z" fill="#263238"/>
<path d="M31.9503 69.0704C31.9032 69.1815 31.2801 69.0177 30.557 68.7077C29.8339 68.3976 29.293 68.0525 29.3401 67.9413C29.3871 67.8302 30.0102 67.994 30.7334 68.304C31.4565 68.6141 32.0032 68.9592 31.9503 69.0704Z" fill="#263238"/>
<path d="M31.4273 73.6041C31.3861 73.7153 30.5983 73.5281 29.7753 72.9899C28.9464 72.4575 28.4584 71.8141 28.5466 71.7322C28.6348 71.6444 29.2345 72.1182 30.0163 72.6213C30.7924 73.1303 31.4684 73.4871 31.4273 73.6041Z" fill="#263238"/>
<path d="M29.0519 77.7286C28.9813 77.8222 28.3523 77.4537 27.7527 76.8102C27.1471 76.1667 26.8297 75.5174 26.9237 75.453C27.0237 75.3829 27.494 75.8976 28.0701 76.5177C28.6521 77.1319 29.1342 77.635 29.0519 77.7286Z" fill="#263238"/>
<path d="M6.53763 78.2145C6.59642 78.3198 5.93211 78.7703 5.06791 79.2207C4.19784 79.6712 3.45123 79.9461 3.39244 79.8408C3.33365 79.7355 3.99796 79.2851 4.86215 78.8346C5.73223 78.3842 6.47884 78.1093 6.53763 78.2145Z" fill="#263238"/>
<path d="M4.47994 74.4817C4.53285 74.5928 4.00376 74.938 3.29829 75.2538C2.59871 75.5697 1.9873 75.7394 1.93439 75.6282C1.88148 75.5171 2.41058 75.172 3.11605 74.8561C3.82151 74.5402 4.42703 74.3705 4.47994 74.4817Z" fill="#263238"/>
<path d="M2.96918 71.1768C2.98682 71.2938 2.33426 71.4868 1.5171 71.6038C0.699934 71.7208 0.0179859 71.715 0.000349251 71.598C-0.0172874 71.481 0.635268 71.2879 1.45243 71.1709C2.26959 71.0539 2.95154 71.0539 2.96918 71.1768Z" fill="#263238"/>
<path d="M7.92513 69.3514C7.96041 69.4626 7.32549 69.7609 6.47893 69.8545C5.63238 69.954 4.95043 69.8019 4.95631 69.6849C4.96219 69.562 5.6265 69.5094 6.42602 69.4158C7.23143 69.3339 7.88986 69.2344 7.92513 69.3514Z" fill="#263238"/>
<path d="M12.0456 65.2741C12.0808 65.3852 11.5752 65.6426 10.8933 65.707C10.2113 65.7772 9.67049 65.6251 9.68225 65.5081C9.69401 65.3852 10.2172 65.3385 10.8521 65.2741C11.4871 65.2098 12.0103 65.1571 12.0456 65.2741Z" fill="#263238"/>
<path d="M12.8333 62.0042C12.7921 62.1212 12.2454 62.0335 11.6105 61.817C10.9756 61.6006 10.4935 61.3315 10.5346 61.2145C10.5758 61.1033 11.1225 61.1852 11.7574 61.4017C12.3924 61.624 12.8744 61.8931 12.8333 62.0042Z" fill="#263238"/>
<path d="M14.3438 58.6991C14.2615 58.781 13.8852 58.5353 13.6148 58.0732C13.3444 57.6111 13.3209 57.1665 13.4326 57.1314C13.5501 57.0963 13.7559 57.4414 13.9911 57.8509C14.2321 58.2721 14.432 58.6172 14.3438 58.6991Z" fill="#263238"/>
<path d="M12.5218 72.2295C12.5512 72.3465 12.075 72.563 11.4636 72.7092C11.1109 72.7969 10.7876 72.8379 10.5759 72.8379L10.4878 72.5805C10.6465 72.5513 10.7464 72.5571 10.7699 72.6039C10.7876 72.6507 10.7288 72.7326 10.5995 72.8262L10.5113 72.5688C10.6994 72.4693 11.0051 72.364 11.3578 72.2763C11.9751 72.1418 12.4924 72.1125 12.5218 72.2295Z" fill="#263238"/>
<path d="M13.3738 78.0265C13.4208 78.1376 12.8153 78.4827 12.0276 78.7869C11.2398 79.097 10.5637 79.2549 10.5167 79.1438C10.4697 79.0326 11.0752 78.6933 11.8629 78.3833C12.6507 78.0733 13.3268 77.9153 13.3738 78.0265Z" fill="#263238"/>
<path d="M8.71859 75.4533C8.75974 75.5703 8.3541 75.8101 7.81912 75.9856C7.28414 76.167 6.81971 76.2196 6.77856 76.1085C6.73741 75.9915 7.14305 75.7575 7.67803 75.5761C8.21301 75.3948 8.67744 75.3363 8.71859 75.4533Z" fill="#263238"/>
<path d="M9.07125 63.6599C9.04186 63.7769 8.34227 63.7067 7.53099 63.42C6.7197 63.1334 6.13182 62.7532 6.18473 62.642C6.23764 62.5309 6.89019 62.7298 7.67796 63.0047C8.46573 63.2855 9.10065 63.537 9.07125 63.6599Z" fill="#263238"/>
<path d="M20.3347 62.378C20.3994 62.4774 20.0055 62.8577 19.4529 63.2204C18.9003 63.5831 18.3947 63.7937 18.33 63.6942C18.2653 63.5948 18.6592 63.2145 19.2118 62.8518C19.7644 62.4891 20.27 62.2727 20.3347 62.378Z" fill="#263238"/>
<path d="M20.9516 68.1931C20.9751 68.3101 20.5636 68.4973 20.0227 68.6085C19.4878 68.7196 19.0351 68.7138 19.0057 68.5968C18.9822 68.4798 19.3937 68.2926 19.9346 68.1814C20.4695 68.0703 20.9222 68.0761 20.9516 68.1931Z" fill="#263238"/>
<path d="M21.6627 74.7395C21.6098 74.8507 21.016 74.681 20.3282 74.3651C19.6404 74.0493 19.1289 73.7041 19.1818 73.593C19.2347 73.4818 19.8285 73.6515 20.5163 73.9674C21.1983 74.2832 21.7097 74.6284 21.6627 74.7395Z" fill="#263238"/>
<path d="M20.1524 81.104C20.0583 81.1801 19.6703 80.8642 19.2882 80.4021C18.906 79.9341 18.6709 79.4953 18.7591 79.4193C18.8531 79.3432 19.2411 79.6591 19.6233 80.1213C20.0113 80.5892 20.2464 81.028 20.1524 81.104Z" fill="#263238"/>
<path d="M19.8468 58.0911C19.9232 58.1847 19.6646 58.5064 19.2236 58.7229C18.7827 58.9452 18.3712 58.9568 18.3418 58.8398C18.3065 58.7229 18.6299 58.5298 19.0238 58.3309C19.4235 58.1379 19.7704 57.9975 19.8468 58.0911Z" fill="#263238"/>
<path d="M25.3665 63.9579C25.4077 64.0691 24.8962 64.3499 24.1966 64.4435C23.497 64.5429 22.9327 64.4084 22.9385 64.2914C22.9444 64.1685 23.4853 64.0983 24.1378 64.0106C24.7845 63.9287 25.3254 63.8468 25.3665 63.9579Z" fill="#263238"/>
<path d="M24.2671 58.6928C24.32 58.7981 23.8144 59.1608 23.0913 59.3889C22.3682 59.6171 21.7451 59.6171 21.7274 59.5001C21.7098 59.3772 22.2683 59.1901 22.9561 58.9736C23.6439 58.7513 24.2142 58.5817 24.2671 58.6928Z" fill="#263238"/>
<path d="M26.5715 72.1185C26.5715 72.2355 25.7014 72.3116 24.655 72.1244C23.6085 71.9372 22.8208 71.5628 22.8619 71.4516C22.9031 71.3346 23.7202 71.516 24.7314 71.6915C25.7426 71.8787 26.5715 71.9957 26.5715 72.1185Z" fill="#263238"/>
<path d="M24.52 79.7701C24.4495 79.8637 23.8087 79.4893 23.1738 78.8516C22.533 78.214 22.1626 77.5764 22.2567 77.5062C22.3566 77.4301 22.8681 77.9274 23.4854 78.5416C24.0968 79.1617 24.5965 79.6765 24.52 79.7701Z" fill="#263238"/>
<path d="M15.5024 52.4628C15.567 52.5564 13.7505 53.2876 11.6517 55.493C9.55294 57.6457 7.38952 61.4481 6.85454 66.0403C6.60175 68.3217 6.81926 70.5329 7.1426 72.5043C7.48358 74.4757 7.94213 76.2307 8.35953 77.6931C8.78281 79.1556 9.17081 80.3256 9.42948 81.1329C9.68815 81.946 9.82925 82.3964 9.79985 82.4081C9.77046 82.4198 9.58234 81.9869 9.27075 81.1914C8.95917 80.3958 8.53002 79.2375 8.06559 77.7809C7.60703 76.3243 7.11909 74.5693 6.74872 72.5745C6.39599 70.5856 6.16083 68.3392 6.4195 65.9935C6.96624 61.296 9.2296 57.4234 11.4283 55.2824C12.5218 54.1943 13.5506 53.4689 14.3031 53.0478C14.6676 52.8196 14.9791 52.6968 15.1849 52.5915C15.3848 52.4979 15.4965 52.4511 15.5024 52.4628Z" fill="#263238"/>
<path d="M21.4929 82.6892C21.3988 82.6424 22.4805 80.9811 23.4682 77.9977C24.4852 75.0435 25.3259 70.6737 24.6498 65.9295C24.3323 63.5603 23.6445 61.3666 22.7803 59.4946C21.8809 57.6461 20.7227 56.131 19.594 55.0722C18.4241 54.0426 17.2718 53.4518 16.4664 53.1066C15.6551 52.7673 15.1672 52.6913 15.1731 52.6562C15.1731 52.6445 15.2965 52.6503 15.5317 52.6854C15.761 52.7264 16.1019 52.8024 16.5252 52.9545C17.3659 53.2587 18.5534 53.8145 19.7939 54.844C20.999 55.9146 22.1924 57.4238 23.1448 59.325C24.0502 61.2321 24.7615 63.4608 25.0848 65.871C25.7727 70.7088 24.8673 75.1429 23.7621 78.103C23.5152 78.8576 23.1918 79.5069 22.9567 80.0861C22.6745 80.6477 22.4394 81.139 22.2277 81.5251C21.775 82.2856 21.5164 82.7009 21.4929 82.6892Z" fill="#263238"/>
<path d="M4.47969 81.6532H28.6875L28.8345 86.4735H4.47969V81.6532Z" fill="#FF6652"/>
<path d="M6.53739 84.0642L7.92473 98.7824H25.625L27.0476 84.228L6.53739 84.0642Z" fill="#FF6652"/>
<path d="M28.8345 86.5327C28.8345 86.6555 23.3851 86.7491 16.66 86.7491C9.93495 86.7491 4.48555 86.6497 4.48555 86.5327C4.48555 86.4157 9.93495 86.3162 16.66 86.3162C23.3851 86.3162 28.8345 86.4098 28.8345 86.5327Z" fill="#263238"/>
<path d="M26.3772 91.013C26.4008 91.0247 26.2362 91.364 25.8599 91.9314C25.4778 92.493 24.8782 93.2885 23.9847 94.1368L23.873 94.2421L23.7613 94.1251C22.5973 92.9083 20.9925 91.4166 19.0173 89.9951L19.2877 89.9834C18.6117 90.5742 17.9063 91.1885 17.1832 91.8202C16.3249 92.5632 15.4902 93.2885 14.6966 93.973L14.5614 94.09L14.4262 93.973C12.9213 92.7094 11.5457 91.5628 10.3817 90.5918L10.6169 90.5684C9.78213 91.5804 9.08258 92.4345 8.52412 93.1072C8.01857 93.7039 7.73052 94.0198 7.70112 94.0022C7.67761 93.9847 7.91863 93.622 8.37716 92.9961C8.90035 92.2999 9.56462 91.4166 10.3523 90.3695L10.4523 90.2349L10.5875 90.3461C11.7691 91.2996 13.1623 92.4228 14.6907 93.6571L14.4144 93.6629C15.208 92.9727 16.0369 92.2473 16.8893 91.4985C17.6123 90.8667 18.3236 90.2583 18.9997 89.6675L19.129 89.5564L19.2642 89.6558C21.257 91.1124 22.8501 92.6568 23.9847 93.9203L23.7613 93.9145C25.566 92.2941 26.3067 90.9662 26.3772 91.013Z" fill="#263238"/>
</svg>
