<svg width="50" height="50" viewBox="0 0 50 50" fill="none" xmlns="http://www.w3.org/2000/svg">
<path d="M25 50C38.8071 50 50 38.8071 50 25C50 11.1929 38.8071 0 25 0C11.1929 0 0 11.1929 0 25C0 38.8071 11.1929 50 25 50Z" fill="#FF6529"/>
<path d="M49.2298 31.1784L33.8055 15.754C33.8055 15.754 25.2708 11.0415 19.776 16.1155C13.551 21.8639 17.5649 35.6163 17.5649 35.6163L31.1783 49.2298C40.021 46.9819 46.9819 40.0211 49.2298 31.1784Z" fill="#E53B07"/>
<path d="M25.0001 38.3354C18.6348 38.3354 13.4749 33.1753 13.4749 26.8102V23.1884C13.4749 16.8231 18.6349 11.6631 25 11.6631C31.3653 11.6631 36.5252 16.8231 36.5252 23.1884V26.8102C36.5253 33.1753 31.3653 38.3354 25.0001 38.3354ZM25 17.3271C21.763 17.3271 19.1389 19.9513 19.1389 23.1884V26.8102C19.1389 30.0472 21.763 32.6713 25 32.6713C28.2371 32.6713 30.8612 30.0472 30.8612 26.8102V23.1884C30.8613 19.9513 28.2371 17.3271 25 17.3271Z" fill="#F8FFFB"/>
<path d="M33.1494 15.04C31.0645 12.9541 28.1826 11.6641 25 11.6641V17.3281C28.2373 17.3281 30.8613 19.9521 30.8613 23.1895V26.8105C30.8613 28.4297 30.2051 29.8945 29.1445 30.9551C28.084 32.0156 26.6191 32.6719 25 32.6719V38.3359C31.3652 38.3359 36.5254 33.1758 36.5254 26.8105V23.1895C36.5254 20.0068 35.2354 17.125 33.1494 15.04Z" fill="#D8D8D8"/>
</svg>
