<svg width="21" height="5" viewBox="0 0 21 5" fill="none" xmlns="http://www.w3.org/2000/svg">
<path d="M20.9998 1.06679C20.9814 1.12775 19.7991 0.768098 17.8266 0.505973C16.8404 0.365767 15.6581 0.28651 14.3471 0.28651C13.0362 0.304798 11.5966 0.414521 10.1019 0.664455C8.61336 0.932676 7.22281 1.32282 5.97926 1.74953C4.74797 2.19453 3.66369 2.67002 2.78769 3.1394C1.02958 4.05989 0.0372037 4.79751 0.000448749 4.74874C-0.0118029 4.73045 0.227114 4.54147 0.680426 4.20619C0.900955 4.03551 1.18274 3.84043 1.51966 3.63317C1.85658 3.42591 2.23637 3.1699 2.67743 2.94435C3.5473 2.45058 4.6377 1.9507 5.87512 1.48131C7.12479 1.0363 8.53374 0.633975 10.0407 0.359658C11.5538 0.103629 13.0117 0 14.341 0C15.6703 0.0182878 16.8649 0.121925 17.8511 0.292612C18.3473 0.353571 18.7884 0.469383 19.1804 0.548631C19.5725 0.627878 19.9033 0.719319 20.1667 0.798566C20.7119 0.950965 21.0059 1.0485 20.9998 1.06679Z" fill="#263238"/>
</svg>
