<svg width="17" height="86" viewBox="0 0 17 86" fill="none" xmlns="http://www.w3.org/2000/svg">
<path d="M16.1002 0C16.1002 0 16.4014 0.564322 16.555 1.72823C16.7145 2.88626 16.6909 4.62625 16.3069 6.77772C16.112 7.85346 15.852 9.035 15.4621 10.2988C15.0545 11.5627 14.4401 12.8559 13.7431 14.2079C12.3371 16.912 10.5589 19.857 8.50902 23.0019L8.26681 23.3723V22.9314C8.2609 20.8563 8.26091 18.6755 8.255 16.4064L8.48538 16.5181C6.72494 17.9289 4.8759 19.4161 2.96777 20.9504L3.01502 20.8798C1.739 24.9124 0.894229 29.4034 0.563409 34.0767C0.0258252 41.2307 0.45707 48.073 0.799705 54.2806C1.08917 60.494 1.27822 66.096 1.47317 70.7928C1.66221 75.4955 1.83353 79.2929 1.97531 81.9205C2.05211 83.2196 2.11118 84.2366 2.15253 84.942C2.17616 85.277 2.19388 85.5357 2.2057 85.7296C2.21751 85.906 2.21161 86 2.21161 86C2.21161 86 2.19388 85.9119 2.17025 85.7355C2.15253 85.5474 2.123 85.2829 2.08756 84.9537C2.02257 84.2659 1.93987 83.2431 1.85126 81.9322C1.67403 79.3046 1.46727 75.5072 1.2546 70.8045C1.04192 66.1019 0.793804 60.5057 0.510243 54.2982C0.155793 48.0965 -0.287272 41.2365 0.250311 34.0591C0.587039 29.3682 1.43181 24.8536 2.72556 20.7975L2.73739 20.7564L2.77283 20.727C4.68096 19.1986 6.5359 17.7173 8.29634 16.3065L8.52674 16.1243V16.4182C8.52083 18.6814 8.52084 20.8622 8.51493 22.9432L8.27272 22.8726C12.3312 16.6122 15.6335 11.1688 16.1415 6.76597C16.5491 4.63213 16.5964 2.90978 16.4605 1.75175C16.4014 1.1698 16.2892 0.740676 16.2183 0.446759C16.1356 0.146964 16.1002 0 16.1002 0Z" fill="#263238"/>
</svg>
