<svg width="18" height="18" viewBox="0 0 18 18" fill="none" xmlns="http://www.w3.org/2000/svg">
<path d="M9.00027 2.45457C7.22269 2.45457 6.9996 2.46234 6.30144 2.49411C5.60465 2.52602 5.12902 2.63634 4.71285 2.7982C4.28237 2.96538 3.9172 3.18902 3.55339 3.55298C3.18931 3.91679 2.96568 4.28198 2.79796 4.71234C2.63569 5.12866 2.52524 5.60443 2.49388 6.30097C2.46265 6.99916 2.45447 7.22238 2.45447 9.00002C2.45447 10.7777 2.46238 11.0001 2.49401 11.6982C2.52606 12.3951 2.63637 12.8707 2.79809 13.2869C2.96541 13.7174 3.18904 14.0826 3.55298 14.4464C3.91665 14.8105 4.28182 15.0347 4.71204 15.2018C5.12848 15.3637 5.60424 15.474 6.3009 15.5059C6.99906 15.5377 7.222 15.5455 8.99945 15.5455C10.7772 15.5455 10.9996 15.5377 11.6977 15.5059C12.3945 15.474 12.8707 15.3637 13.2871 15.2018C13.7175 15.0347 14.0821 14.8105 14.4458 14.4464C14.8099 14.0826 15.0335 13.7174 15.2012 13.287C15.3621 12.8707 15.4726 12.3949 15.5053 11.6984C15.5367 11.0002 15.5448 10.7777 15.5448 9.00002C15.5448 7.22238 15.5367 6.99929 15.5053 6.30111C15.4726 5.60429 15.3621 5.12866 15.2012 4.71247C15.0335 4.28197 14.8099 3.91679 14.4458 3.55298C14.0817 3.18888 13.7176 2.96525 13.2867 2.7982C12.8695 2.63634 12.3936 2.52602 11.6968 2.49411C10.9986 2.46234 10.7764 2.45457 8.99822 2.45457H9.00027ZM8.41311 3.63411C8.58737 3.63384 8.78182 3.63411 9.00027 3.63411C10.7479 3.63411 10.955 3.64038 11.6451 3.67175C12.2833 3.70093 12.6296 3.80757 12.8603 3.89716C13.1658 4.01579 13.3835 4.15761 13.6125 4.3867C13.8416 4.61579 13.9834 4.83397 14.1023 5.13943C14.1919 5.36988 14.2987 5.71625 14.3277 6.35443C14.3591 7.04443 14.3659 7.2517 14.3659 8.99852C14.3659 10.7453 14.3591 10.9526 14.3277 11.6426C14.2985 12.2808 14.1919 12.6272 14.1023 12.8576C13.9837 13.1631 13.8416 13.3806 13.6125 13.6095C13.3834 13.8386 13.1659 13.9804 12.8603 14.0991C12.6299 14.1891 12.2833 14.2954 11.6451 14.3246C10.9551 14.356 10.7479 14.3628 9.00027 14.3628C7.25255 14.3628 7.04542 14.356 6.35544 14.3246C5.71728 14.2952 5.37092 14.1885 5.14007 14.0989C4.83462 13.9803 4.61645 13.8385 4.38736 13.6094C4.15828 13.3803 4.01647 13.1627 3.89756 12.8571C3.80797 12.6266 3.7012 12.2802 3.67216 11.6421C3.6408 10.9521 3.63452 10.7448 3.63452 8.99688C3.63452 7.24897 3.6408 7.04279 3.67216 6.35279C3.70134 5.71461 3.80797 5.36825 3.89756 5.13752C4.01619 4.83207 4.15828 4.61388 4.38736 4.38479C4.61645 4.1557 4.83462 4.01388 5.14007 3.89498C5.37079 3.80498 5.71728 3.69861 6.35544 3.66929C6.95924 3.64202 7.19323 3.63384 8.41311 3.63248V3.63411ZM12.4941 4.72093C12.0604 4.72093 11.7086 5.07234 11.7086 5.50611C11.7086 5.93975 12.0604 6.29156 12.4941 6.29156C12.9277 6.29156 13.2795 5.93975 13.2795 5.50611C13.2795 5.07247 12.9277 4.72066 12.4941 4.72066V4.72093ZM9.00027 5.63866C7.14401 5.63866 5.63901 7.1437 5.63901 9.00002C5.63901 10.8563 7.14401 12.3607 9.00027 12.3607C10.8565 12.3607 12.361 10.8563 12.361 9.00002C12.361 7.1437 10.8564 5.63866 9.00013 5.63866H9.00027ZM9.00027 6.8182C10.2051 6.8182 11.182 7.79497 11.182 9.00002C11.182 10.2049 10.2051 11.1818 9.00027 11.1818C7.79526 11.1818 6.81852 10.2049 6.81852 9.00002C6.81852 7.79497 7.79526 6.8182 9.00027 6.8182Z" fill="white"/>
</svg>
