<svg width="21" height="22" viewBox="0 0 21 22" fill="none" xmlns="http://www.w3.org/2000/svg">
<path d="M20.8844 21.9996C20.8786 22.0055 20.8256 21.9411 20.7197 21.8064C20.608 21.6542 20.4609 21.4611 20.2844 21.2269C19.8962 20.6884 19.355 19.9449 18.6844 19.02C17.3079 17.0883 15.396 14.4014 13.1372 11.2345L13.3842 11.1993C12.5254 13.7048 11.5783 16.4736 10.5841 19.383L10.5194 19.5644L10.3606 19.459C10.2547 19.3947 10.143 19.3186 10.0312 19.2483C8.7135 18.4171 7.54875 17.4161 6.56637 16.3331C5.58399 15.2443 4.76632 14.0853 4.08983 12.9262C2.73685 10.6023 1.91918 8.3134 1.36622 6.37579C0.813264 4.43233 0.52502 2.81668 0.336779 1.71031C0.242659 1.17761 0.172065 0.756144 0.11324 0.434184C0.0838275 0.287839 0.054412 0.182472 0.0367645 0.106373C0.00735183 0.0419809 -0.00441179 0.000999602 0.00147074 0.000999602C0.0661785 -0.0282694 0.236783 0.58638 0.454437 1.69275C0.683855 2.79326 1.0015 4.39721 1.57798 6.32311C2.15447 8.24316 2.98391 10.5086 4.33689 12.7916C5.01338 13.9331 5.81929 15.0687 6.78991 16.1399C7.76641 17.1995 8.90762 18.1829 10.1959 18.9966C10.3077 19.0669 10.4194 19.1371 10.5194 19.2015L10.2959 19.2834C11.3018 16.3741 12.2548 13.6111 13.1195 11.1115L13.2077 10.8481L13.3666 11.0764C15.5843 14.2667 17.4667 16.977 18.8197 18.9264C19.4668 19.8688 19.9785 20.6298 20.355 21.1801C20.5197 21.4259 20.6491 21.625 20.755 21.783C20.8433 21.9235 20.8903 21.9938 20.8844 21.9996Z" fill="#263238"/>
</svg>
