<!-- <svg width="174" height="10" viewBox="0 0 260 30" fill="none" xmlns="http://www.w3.org/2000/svg">
  <path d="M15 15L3.81 10.53L4.5 27H1.5L2.22 9.885L0 9L15 3L30 9L15 15ZM15 7.5C14.175 7.5 13.5 7.83 13.5 8.25C13.5 8.67 14.175 9 15 9C15.825 9 16.5 8.67 16.5 8.25C16.5 7.83 15.825 7.5 15 7.5ZM15 16.5L23.355 13.155C24.42 14.565 25.155 16.26 25.395 18.105C24.945 18.045 24.48 18 24 18C20.175 18 16.83 20.055 15 23.115C14.0711 21.5561 12.7534 20.2652 11.1757 19.3686C9.59807 18.4719 7.81463 18.0004 6 18C5.52 18 5.055 18.045 4.605 18.105C4.845 16.26 5.58 14.565 6.645 13.155L15 16.5Z" fill="black" />
  <text x="40" y="18" font-size="30"  fill="black ">FreelanceIT</text>
</svg> -->

<svg width="174" height="20" viewBox="0 0 260 30" fill="none" xmlns="http://www.w3.org/2000/svg">
  <path d="M15 15L3.81 10.53L4.5 27H1.5L2.22 9.885L0 9L15 3L30 9L15 15ZM15 7.5C14.175 7.5 13.5 7.83 13.5 8.25C13.5 8.67 14.175 9 15 9C15.825 9 16.5 8.67 16.5 8.25C16.5 7.83 15.825 7.5 15 7.5ZM15 16.5L23.355 13.155C24.42 14.565 25.155 16.26 25.395 18.105C24.945 18.045 24.48 18 24 18C20.175 18 16.83 20.055 15 23.115C14.0711 21.5561 12.7534 20.2652 11.1757 19.3686C9.59807 18.4719 7.81463 18.0004 6 18C5.52 18 5.055 18.045 4.605 18.105C4.845 16.26 5.58 14.565 6.645 13.155L15 16.5Z" fill="black" />
  <text x="40" y="18" font-size="30" fill="black">FreelanceIT</text>
</svg>